M48
; DRILL file {KiCad (5.1.4)-1} date 1/22/2020 7:26:33 PM
; FORMAT={-:-/ absolute / inch / decimal}
; #@! TF.CreationDate,2020-01-22T19:26:33-05:00
; #@! TF.GenerationSoftware,Kicad,Pcbnew,(5.1.4)-1
; #@! TF.FileFunction,Plated,1,2,PTH
FMAT,2
INCH
T1C0.0157
T2C0.0197
T3C0.0394
T4C0.0433
T5C0.0984
%
G90
G05
T1
X5.5Y-3.85
X5.5Y-3.85
X5.55Y-3.65
X5.6631Y-3.4369
X5.75Y-3.5
X5.8Y-4.0
X6.0Y-3.8
X6.05Y-3.65
X6.1Y-4.0
X6.2Y-3.55
T2
X5.024Y-3.4022
X5.0456Y-3.35
X5.0456Y-3.4544
X5.0978Y-3.3284
X5.0978Y-3.476
X5.15Y-3.35
X5.15Y-3.4544
X5.1716Y-3.4022
X6.6762Y-4.05
X6.6978Y-3.9978
X6.6978Y-4.1022
X6.75Y-3.9762
X6.75Y-4.1238
X6.8022Y-3.9978
X6.8022Y-4.1022
X6.8238Y-4.05
X5.0262Y-4.05
X5.0478Y-3.9978
X5.0478Y-4.1022
X5.1Y-3.9762
X5.1Y-4.1238
X5.1522Y-3.9978
X5.1522Y-4.1022
X5.1738Y-4.05
X6.6762Y-3.4
X6.6978Y-3.3478
X6.6978Y-3.4522
X6.75Y-3.3262
X6.75Y-3.4738
X6.8022Y-3.3478
X6.8022Y-3.4522
X6.8238Y-3.4
T3
X5.35Y-3.4
X6.45Y-3.5
X6.6Y-3.6
X6.6Y-3.7
X6.6Y-3.8
X6.6Y-3.9
X6.45Y-3.75
X6.45Y-3.95
T4
X5.2Y-3.6
X5.2Y-3.7
T5
X5.0978Y-3.4022
X6.75Y-4.05
X5.1Y-4.05
X6.75Y-3.4
T0
M30
