G04 #@! TF.GenerationSoftware,KiCad,Pcbnew,(5.1.4)-1*
G04 #@! TF.CreationDate,2020-01-22T19:26:31-05:00*
G04 #@! TF.ProjectId,UniversalLM393,556e6976-6572-4736-916c-4c4d3339332e,rev?*
G04 #@! TF.SameCoordinates,Original*
G04 #@! TF.FileFunction,Soldermask,Top*
G04 #@! TF.FilePolarity,Negative*
%FSLAX46Y46*%
G04 Gerber Fmt 4.6, Leading zero omitted, Abs format (unit mm)*
G04 Created by KiCad (PCBNEW (5.1.4)-1) date 2020-01-22 19:26:31*
%MOMM*%
%LPD*%
G04 APERTURE LIST*
%ADD10C,0.100000*%
G04 APERTURE END LIST*
D10*
G36*
X172194098Y-100417033D02*
G01*
X172658350Y-100609332D01*
X172658352Y-100609333D01*
X173076168Y-100888509D01*
X173431491Y-101243832D01*
X173581493Y-101468326D01*
X173710668Y-101661650D01*
X173902967Y-102125902D01*
X174001000Y-102618747D01*
X174001000Y-103121253D01*
X173902967Y-103614098D01*
X173781093Y-103908329D01*
X173710667Y-104078352D01*
X173431491Y-104496168D01*
X173076168Y-104851491D01*
X172658352Y-105130667D01*
X172658351Y-105130668D01*
X172658350Y-105130668D01*
X172194098Y-105322967D01*
X171701253Y-105421000D01*
X171198747Y-105421000D01*
X170705902Y-105322967D01*
X170241650Y-105130668D01*
X170241649Y-105130668D01*
X170241648Y-105130667D01*
X169823832Y-104851491D01*
X169468509Y-104496168D01*
X169189333Y-104078352D01*
X169118907Y-103908329D01*
X168997033Y-103614098D01*
X168899000Y-103121253D01*
X168899000Y-102618747D01*
X168997033Y-102125902D01*
X169189332Y-101661650D01*
X169318507Y-101468326D01*
X169468509Y-101243832D01*
X169823832Y-100888509D01*
X170241648Y-100609333D01*
X170241650Y-100609332D01*
X170705902Y-100417033D01*
X171198747Y-100319000D01*
X171701253Y-100319000D01*
X172194098Y-100417033D01*
X172194098Y-100417033D01*
G37*
G36*
X130284098Y-100417033D02*
G01*
X130748350Y-100609332D01*
X130748352Y-100609333D01*
X131166168Y-100888509D01*
X131521491Y-101243832D01*
X131671493Y-101468326D01*
X131800668Y-101661650D01*
X131992967Y-102125902D01*
X132091000Y-102618747D01*
X132091000Y-103121253D01*
X131992967Y-103614098D01*
X131871093Y-103908329D01*
X131800667Y-104078352D01*
X131521491Y-104496168D01*
X131166168Y-104851491D01*
X130748352Y-105130667D01*
X130748351Y-105130668D01*
X130748350Y-105130668D01*
X130284098Y-105322967D01*
X129791253Y-105421000D01*
X129288747Y-105421000D01*
X128795902Y-105322967D01*
X128331650Y-105130668D01*
X128331649Y-105130668D01*
X128331648Y-105130667D01*
X127913832Y-104851491D01*
X127558509Y-104496168D01*
X127279333Y-104078352D01*
X127208907Y-103908329D01*
X127087033Y-103614098D01*
X126989000Y-103121253D01*
X126989000Y-102618747D01*
X127087033Y-102125902D01*
X127279332Y-101661650D01*
X127408507Y-101468326D01*
X127558509Y-101243832D01*
X127913832Y-100888509D01*
X128331648Y-100609333D01*
X128331650Y-100609332D01*
X128795902Y-100417033D01*
X129288747Y-100319000D01*
X129791253Y-100319000D01*
X130284098Y-100417033D01*
X130284098Y-100417033D01*
G37*
G36*
X153376968Y-102123565D02*
G01*
X153415638Y-102135296D01*
X153451277Y-102154346D01*
X153482517Y-102179983D01*
X153508154Y-102211223D01*
X153527204Y-102246862D01*
X153538935Y-102285532D01*
X153543500Y-102331888D01*
X153543500Y-103408112D01*
X153538935Y-103454468D01*
X153527204Y-103493138D01*
X153508154Y-103528777D01*
X153482517Y-103560017D01*
X153451277Y-103585654D01*
X153415638Y-103604704D01*
X153376968Y-103616435D01*
X153330612Y-103621000D01*
X152679388Y-103621000D01*
X152633032Y-103616435D01*
X152594362Y-103604704D01*
X152558723Y-103585654D01*
X152527483Y-103560017D01*
X152501846Y-103528777D01*
X152482796Y-103493138D01*
X152471065Y-103454468D01*
X152466500Y-103408112D01*
X152466500Y-102331888D01*
X152471065Y-102285532D01*
X152482796Y-102246862D01*
X152501846Y-102211223D01*
X152527483Y-102179983D01*
X152558723Y-102154346D01*
X152594362Y-102135296D01*
X152633032Y-102123565D01*
X152679388Y-102119000D01*
X153330612Y-102119000D01*
X153376968Y-102123565D01*
X153376968Y-102123565D01*
G37*
G36*
X157519468Y-102123565D02*
G01*
X157558138Y-102135296D01*
X157593777Y-102154346D01*
X157625017Y-102179983D01*
X157650654Y-102211223D01*
X157669704Y-102246862D01*
X157681435Y-102285532D01*
X157686000Y-102331888D01*
X157686000Y-103408112D01*
X157681435Y-103454468D01*
X157669704Y-103493138D01*
X157650654Y-103528777D01*
X157625017Y-103560017D01*
X157593777Y-103585654D01*
X157558138Y-103604704D01*
X157519468Y-103616435D01*
X157473112Y-103621000D01*
X156821888Y-103621000D01*
X156775532Y-103616435D01*
X156736862Y-103604704D01*
X156701223Y-103585654D01*
X156669983Y-103560017D01*
X156644346Y-103528777D01*
X156625296Y-103493138D01*
X156613565Y-103454468D01*
X156609000Y-103408112D01*
X156609000Y-102331888D01*
X156613565Y-102285532D01*
X156625296Y-102246862D01*
X156644346Y-102211223D01*
X156669983Y-102179983D01*
X156701223Y-102154346D01*
X156736862Y-102135296D01*
X156775532Y-102123565D01*
X156821888Y-102119000D01*
X157473112Y-102119000D01*
X157519468Y-102123565D01*
X157519468Y-102123565D01*
G37*
G36*
X155644468Y-102123565D02*
G01*
X155683138Y-102135296D01*
X155718777Y-102154346D01*
X155750017Y-102179983D01*
X155775654Y-102211223D01*
X155794704Y-102246862D01*
X155806435Y-102285532D01*
X155811000Y-102331888D01*
X155811000Y-103408112D01*
X155806435Y-103454468D01*
X155794704Y-103493138D01*
X155775654Y-103528777D01*
X155750017Y-103560017D01*
X155718777Y-103585654D01*
X155683138Y-103604704D01*
X155644468Y-103616435D01*
X155598112Y-103621000D01*
X154946888Y-103621000D01*
X154900532Y-103616435D01*
X154861862Y-103604704D01*
X154826223Y-103585654D01*
X154794983Y-103560017D01*
X154769346Y-103528777D01*
X154750296Y-103493138D01*
X154738565Y-103454468D01*
X154734000Y-103408112D01*
X154734000Y-102331888D01*
X154738565Y-102285532D01*
X154750296Y-102246862D01*
X154769346Y-102211223D01*
X154794983Y-102179983D01*
X154826223Y-102154346D01*
X154861862Y-102135296D01*
X154900532Y-102123565D01*
X154946888Y-102119000D01*
X155598112Y-102119000D01*
X155644468Y-102123565D01*
X155644468Y-102123565D01*
G37*
G36*
X151501968Y-102123565D02*
G01*
X151540638Y-102135296D01*
X151576277Y-102154346D01*
X151607517Y-102179983D01*
X151633154Y-102211223D01*
X151652204Y-102246862D01*
X151663935Y-102285532D01*
X151668500Y-102331888D01*
X151668500Y-103408112D01*
X151663935Y-103454468D01*
X151652204Y-103493138D01*
X151633154Y-103528777D01*
X151607517Y-103560017D01*
X151576277Y-103585654D01*
X151540638Y-103604704D01*
X151501968Y-103616435D01*
X151455612Y-103621000D01*
X150804388Y-103621000D01*
X150758032Y-103616435D01*
X150719362Y-103604704D01*
X150683723Y-103585654D01*
X150652483Y-103560017D01*
X150626846Y-103528777D01*
X150607796Y-103493138D01*
X150596065Y-103454468D01*
X150591500Y-103408112D01*
X150591500Y-102331888D01*
X150596065Y-102285532D01*
X150607796Y-102246862D01*
X150626846Y-102211223D01*
X150652483Y-102179983D01*
X150683723Y-102154346D01*
X150719362Y-102135296D01*
X150758032Y-102123565D01*
X150804388Y-102119000D01*
X151455612Y-102119000D01*
X151501968Y-102123565D01*
X151501968Y-102123565D01*
G37*
G36*
X161329468Y-100853565D02*
G01*
X161368138Y-100865296D01*
X161403777Y-100884346D01*
X161435017Y-100909983D01*
X161460654Y-100941223D01*
X161479704Y-100976862D01*
X161491435Y-101015532D01*
X161496000Y-101061888D01*
X161496000Y-102138112D01*
X161491435Y-102184468D01*
X161479704Y-102223138D01*
X161460654Y-102258777D01*
X161435017Y-102290017D01*
X161403777Y-102315654D01*
X161368138Y-102334704D01*
X161329468Y-102346435D01*
X161283112Y-102351000D01*
X160631888Y-102351000D01*
X160585532Y-102346435D01*
X160546862Y-102334704D01*
X160511223Y-102315654D01*
X160479983Y-102290017D01*
X160454346Y-102258777D01*
X160435296Y-102223138D01*
X160423565Y-102184468D01*
X160419000Y-102138112D01*
X160419000Y-101061888D01*
X160423565Y-101015532D01*
X160435296Y-100976862D01*
X160454346Y-100941223D01*
X160479983Y-100909983D01*
X160511223Y-100884346D01*
X160546862Y-100865296D01*
X160585532Y-100853565D01*
X160631888Y-100849000D01*
X161283112Y-100849000D01*
X161329468Y-100853565D01*
X161329468Y-100853565D01*
G37*
G36*
X159454468Y-100853565D02*
G01*
X159493138Y-100865296D01*
X159528777Y-100884346D01*
X159560017Y-100909983D01*
X159585654Y-100941223D01*
X159604704Y-100976862D01*
X159616435Y-101015532D01*
X159621000Y-101061888D01*
X159621000Y-102138112D01*
X159616435Y-102184468D01*
X159604704Y-102223138D01*
X159585654Y-102258777D01*
X159560017Y-102290017D01*
X159528777Y-102315654D01*
X159493138Y-102334704D01*
X159454468Y-102346435D01*
X159408112Y-102351000D01*
X158756888Y-102351000D01*
X158710532Y-102346435D01*
X158671862Y-102334704D01*
X158636223Y-102315654D01*
X158604983Y-102290017D01*
X158579346Y-102258777D01*
X158560296Y-102223138D01*
X158548565Y-102184468D01*
X158544000Y-102138112D01*
X158544000Y-101061888D01*
X158548565Y-101015532D01*
X158560296Y-100976862D01*
X158579346Y-100941223D01*
X158604983Y-100909983D01*
X158636223Y-100884346D01*
X158671862Y-100865296D01*
X158710532Y-100853565D01*
X158756888Y-100849000D01*
X159408112Y-100849000D01*
X159454468Y-100853565D01*
X159454468Y-100853565D01*
G37*
G36*
X142824468Y-100401065D02*
G01*
X142863138Y-100412796D01*
X142898777Y-100431846D01*
X142930017Y-100457483D01*
X142955654Y-100488723D01*
X142974704Y-100524362D01*
X142986435Y-100563032D01*
X142991000Y-100609388D01*
X142991000Y-101260612D01*
X142986435Y-101306968D01*
X142974704Y-101345638D01*
X142955654Y-101381277D01*
X142930017Y-101412517D01*
X142898777Y-101438154D01*
X142863138Y-101457204D01*
X142824468Y-101468935D01*
X142778112Y-101473500D01*
X141701888Y-101473500D01*
X141655532Y-101468935D01*
X141616862Y-101457204D01*
X141581223Y-101438154D01*
X141549983Y-101412517D01*
X141524346Y-101381277D01*
X141505296Y-101345638D01*
X141493565Y-101306968D01*
X141489000Y-101260612D01*
X141489000Y-100609388D01*
X141493565Y-100563032D01*
X141505296Y-100524362D01*
X141524346Y-100488723D01*
X141549983Y-100457483D01*
X141581223Y-100431846D01*
X141616862Y-100412796D01*
X141655532Y-100401065D01*
X141701888Y-100396500D01*
X142778112Y-100396500D01*
X142824468Y-100401065D01*
X142824468Y-100401065D01*
G37*
G36*
X164136564Y-99319389D02*
G01*
X164327833Y-99398615D01*
X164327835Y-99398616D01*
X164499973Y-99513635D01*
X164646365Y-99660027D01*
X164748431Y-99812779D01*
X164761385Y-99832167D01*
X164840611Y-100023436D01*
X164881000Y-100226484D01*
X164881000Y-100433516D01*
X164840611Y-100636564D01*
X164780630Y-100781371D01*
X164761384Y-100827835D01*
X164646365Y-100999973D01*
X164499973Y-101146365D01*
X164327835Y-101261384D01*
X164327834Y-101261385D01*
X164327833Y-101261385D01*
X164136564Y-101340611D01*
X163933516Y-101381000D01*
X163726484Y-101381000D01*
X163523436Y-101340611D01*
X163332167Y-101261385D01*
X163332166Y-101261385D01*
X163332165Y-101261384D01*
X163160027Y-101146365D01*
X163013635Y-100999973D01*
X162898616Y-100827835D01*
X162879370Y-100781371D01*
X162819389Y-100636564D01*
X162779000Y-100433516D01*
X162779000Y-100226484D01*
X162819389Y-100023436D01*
X162898615Y-99832167D01*
X162911570Y-99812779D01*
X163013635Y-99660027D01*
X163160027Y-99513635D01*
X163332165Y-99398616D01*
X163332167Y-99398615D01*
X163523436Y-99319389D01*
X163726484Y-99279000D01*
X163933516Y-99279000D01*
X164136564Y-99319389D01*
X164136564Y-99319389D01*
G37*
G36*
X167750443Y-98165519D02*
G01*
X167816627Y-98172037D01*
X167986466Y-98223557D01*
X168142991Y-98307222D01*
X168178729Y-98336552D01*
X168280186Y-98419814D01*
X168363448Y-98521271D01*
X168392778Y-98557009D01*
X168476443Y-98713534D01*
X168527963Y-98883373D01*
X168545359Y-99060000D01*
X168527963Y-99236627D01*
X168476443Y-99406466D01*
X168392778Y-99562991D01*
X168367383Y-99593935D01*
X168280186Y-99700186D01*
X168178729Y-99783448D01*
X168142991Y-99812778D01*
X167986466Y-99896443D01*
X167816627Y-99947963D01*
X167750443Y-99954481D01*
X167684260Y-99961000D01*
X167595740Y-99961000D01*
X167529557Y-99954481D01*
X167463373Y-99947963D01*
X167293534Y-99896443D01*
X167137009Y-99812778D01*
X167101271Y-99783448D01*
X166999814Y-99700186D01*
X166912617Y-99593935D01*
X166887222Y-99562991D01*
X166803557Y-99406466D01*
X166752037Y-99236627D01*
X166734641Y-99060000D01*
X166752037Y-98883373D01*
X166803557Y-98713534D01*
X166887222Y-98557009D01*
X166916552Y-98521271D01*
X166999814Y-98419814D01*
X167101271Y-98336552D01*
X167137009Y-98307222D01*
X167293534Y-98223557D01*
X167463373Y-98172037D01*
X167529557Y-98165519D01*
X167595740Y-98159000D01*
X167684260Y-98159000D01*
X167750443Y-98165519D01*
X167750443Y-98165519D01*
G37*
G36*
X142824468Y-98526065D02*
G01*
X142863138Y-98537796D01*
X142898777Y-98556846D01*
X142930017Y-98582483D01*
X142955654Y-98613723D01*
X142974704Y-98649362D01*
X142986435Y-98688032D01*
X142991000Y-98734388D01*
X142991000Y-99385612D01*
X142986435Y-99431968D01*
X142974704Y-99470638D01*
X142955654Y-99506277D01*
X142930017Y-99537517D01*
X142898777Y-99563154D01*
X142863138Y-99582204D01*
X142824468Y-99593935D01*
X142778112Y-99598500D01*
X141701888Y-99598500D01*
X141655532Y-99593935D01*
X141616862Y-99582204D01*
X141581223Y-99563154D01*
X141549983Y-99537517D01*
X141524346Y-99506277D01*
X141505296Y-99470638D01*
X141493565Y-99431968D01*
X141489000Y-99385612D01*
X141489000Y-98734388D01*
X141493565Y-98688032D01*
X141505296Y-98649362D01*
X141524346Y-98613723D01*
X141549983Y-98582483D01*
X141581223Y-98556846D01*
X141616862Y-98537796D01*
X141655532Y-98526065D01*
X141701888Y-98521500D01*
X142778112Y-98521500D01*
X142824468Y-98526065D01*
X142824468Y-98526065D01*
G37*
G36*
X151616000Y-99051000D02*
G01*
X149014000Y-99051000D01*
X149014000Y-96449000D01*
X151616000Y-96449000D01*
X151616000Y-99051000D01*
X151616000Y-99051000D01*
G37*
G36*
X167750442Y-95625518D02*
G01*
X167816627Y-95632037D01*
X167986466Y-95683557D01*
X168142991Y-95767222D01*
X168178729Y-95796552D01*
X168280186Y-95879814D01*
X168363448Y-95981271D01*
X168392778Y-96017009D01*
X168476443Y-96173534D01*
X168527963Y-96343373D01*
X168545359Y-96520000D01*
X168527963Y-96696627D01*
X168476443Y-96866466D01*
X168392778Y-97022991D01*
X168363448Y-97058729D01*
X168280186Y-97160186D01*
X168178729Y-97243448D01*
X168142991Y-97272778D01*
X167986466Y-97356443D01*
X167816627Y-97407963D01*
X167750442Y-97414482D01*
X167684260Y-97421000D01*
X167595740Y-97421000D01*
X167529558Y-97414482D01*
X167463373Y-97407963D01*
X167293534Y-97356443D01*
X167137009Y-97272778D01*
X167101271Y-97243448D01*
X166999814Y-97160186D01*
X166916552Y-97058729D01*
X166887222Y-97022991D01*
X166803557Y-96866466D01*
X166752037Y-96696627D01*
X166734641Y-96520000D01*
X166752037Y-96343373D01*
X166803557Y-96173534D01*
X166887222Y-96017009D01*
X166916552Y-95981271D01*
X166999814Y-95879814D01*
X167101271Y-95796552D01*
X167137009Y-95767222D01*
X167293534Y-95683557D01*
X167463373Y-95632037D01*
X167529558Y-95625518D01*
X167595740Y-95619000D01*
X167684260Y-95619000D01*
X167750442Y-95625518D01*
X167750442Y-95625518D01*
G37*
G36*
X160866000Y-96551000D02*
G01*
X158264000Y-96551000D01*
X158264000Y-93949000D01*
X160866000Y-93949000D01*
X160866000Y-96551000D01*
X160866000Y-96551000D01*
G37*
G36*
X164136564Y-94239389D02*
G01*
X164327833Y-94318615D01*
X164327835Y-94318616D01*
X164499973Y-94433635D01*
X164646365Y-94580027D01*
X164748431Y-94732779D01*
X164761385Y-94752167D01*
X164840611Y-94943436D01*
X164881000Y-95146484D01*
X164881000Y-95353516D01*
X164840611Y-95556564D01*
X164761385Y-95747833D01*
X164761384Y-95747835D01*
X164646365Y-95919973D01*
X164499973Y-96066365D01*
X164327835Y-96181384D01*
X164327834Y-96181385D01*
X164327833Y-96181385D01*
X164136564Y-96260611D01*
X163933516Y-96301000D01*
X163726484Y-96301000D01*
X163523436Y-96260611D01*
X163332167Y-96181385D01*
X163332166Y-96181385D01*
X163332165Y-96181384D01*
X163160027Y-96066365D01*
X163013635Y-95919973D01*
X162898616Y-95747835D01*
X162898615Y-95747833D01*
X162819389Y-95556564D01*
X162779000Y-95353516D01*
X162779000Y-95146484D01*
X162819389Y-94943436D01*
X162898615Y-94752167D01*
X162911570Y-94732779D01*
X163013635Y-94580027D01*
X163160027Y-94433635D01*
X163332165Y-94318616D01*
X163332167Y-94318615D01*
X163523436Y-94239389D01*
X163726484Y-94199000D01*
X163933516Y-94199000D01*
X164136564Y-94239389D01*
X164136564Y-94239389D01*
G37*
G36*
X133181000Y-95081000D02*
G01*
X130979000Y-95081000D01*
X130979000Y-92879000D01*
X133181000Y-92879000D01*
X133181000Y-95081000D01*
X133181000Y-95081000D01*
G37*
G36*
X146866000Y-94941000D02*
G01*
X145014000Y-94941000D01*
X145014000Y-94289000D01*
X146866000Y-94289000D01*
X146866000Y-94941000D01*
X146866000Y-94941000D01*
G37*
G36*
X139466000Y-94941000D02*
G01*
X137614000Y-94941000D01*
X137614000Y-94289000D01*
X139466000Y-94289000D01*
X139466000Y-94941000D01*
X139466000Y-94941000D01*
G37*
G36*
X167750443Y-93085519D02*
G01*
X167816627Y-93092037D01*
X167986466Y-93143557D01*
X168142991Y-93227222D01*
X168178729Y-93256552D01*
X168280186Y-93339814D01*
X168363448Y-93441271D01*
X168392778Y-93477009D01*
X168476443Y-93633534D01*
X168527963Y-93803373D01*
X168545359Y-93980000D01*
X168527963Y-94156627D01*
X168476443Y-94326466D01*
X168392778Y-94482991D01*
X168363448Y-94518729D01*
X168280186Y-94620186D01*
X168178729Y-94703448D01*
X168142991Y-94732778D01*
X167986466Y-94816443D01*
X167816627Y-94867963D01*
X167750443Y-94874481D01*
X167684260Y-94881000D01*
X167595740Y-94881000D01*
X167529557Y-94874481D01*
X167463373Y-94867963D01*
X167293534Y-94816443D01*
X167137009Y-94732778D01*
X167101271Y-94703448D01*
X166999814Y-94620186D01*
X166916552Y-94518729D01*
X166887222Y-94482991D01*
X166803557Y-94326466D01*
X166752037Y-94156627D01*
X166734641Y-93980000D01*
X166752037Y-93803373D01*
X166803557Y-93633534D01*
X166887222Y-93477009D01*
X166916552Y-93441271D01*
X166999814Y-93339814D01*
X167101271Y-93256552D01*
X167137009Y-93227222D01*
X167293534Y-93143557D01*
X167463373Y-93092037D01*
X167529557Y-93085519D01*
X167595740Y-93079000D01*
X167684260Y-93079000D01*
X167750443Y-93085519D01*
X167750443Y-93085519D01*
G37*
G36*
X151616000Y-94051000D02*
G01*
X149014000Y-94051000D01*
X149014000Y-91449000D01*
X151616000Y-91449000D01*
X151616000Y-94051000D01*
X151616000Y-94051000D01*
G37*
G36*
X139466000Y-93671000D02*
G01*
X137614000Y-93671000D01*
X137614000Y-93019000D01*
X139466000Y-93019000D01*
X139466000Y-93671000D01*
X139466000Y-93671000D01*
G37*
G36*
X146866000Y-93671000D02*
G01*
X145014000Y-93671000D01*
X145014000Y-93019000D01*
X146866000Y-93019000D01*
X146866000Y-93671000D01*
X146866000Y-93671000D01*
G37*
G36*
X132294795Y-90360156D02*
G01*
X132401150Y-90381311D01*
X132601520Y-90464307D01*
X132781844Y-90584795D01*
X132935205Y-90738156D01*
X133055693Y-90918480D01*
X133138689Y-91118851D01*
X133181000Y-91331560D01*
X133181000Y-91548440D01*
X133138689Y-91761149D01*
X133055693Y-91961520D01*
X132935205Y-92141844D01*
X132781844Y-92295205D01*
X132601520Y-92415693D01*
X132401150Y-92498689D01*
X132294795Y-92519844D01*
X132188440Y-92541000D01*
X131971560Y-92541000D01*
X131865205Y-92519844D01*
X131758850Y-92498689D01*
X131658666Y-92457191D01*
X131558480Y-92415693D01*
X131378156Y-92295205D01*
X131224795Y-92141844D01*
X131104307Y-91961520D01*
X131021311Y-91761149D01*
X130979000Y-91548440D01*
X130979000Y-91331560D01*
X131021311Y-91118851D01*
X131104307Y-90918480D01*
X131224795Y-90738156D01*
X131378156Y-90584795D01*
X131558480Y-90464307D01*
X131658666Y-90422809D01*
X131758850Y-90381311D01*
X131865205Y-90360156D01*
X131971560Y-90339000D01*
X132188440Y-90339000D01*
X132294795Y-90360156D01*
X132294795Y-90360156D01*
G37*
G36*
X146866000Y-92401000D02*
G01*
X145014000Y-92401000D01*
X145014000Y-91749000D01*
X146866000Y-91749000D01*
X146866000Y-92401000D01*
X146866000Y-92401000D01*
G37*
G36*
X139466000Y-92401000D02*
G01*
X137614000Y-92401000D01*
X137614000Y-91749000D01*
X139466000Y-91749000D01*
X139466000Y-92401000D01*
X139466000Y-92401000D01*
G37*
G36*
X168541000Y-92341000D02*
G01*
X166739000Y-92341000D01*
X166739000Y-90539000D01*
X168541000Y-90539000D01*
X168541000Y-92341000D01*
X168541000Y-92341000D01*
G37*
G36*
X146866000Y-91131000D02*
G01*
X145014000Y-91131000D01*
X145014000Y-90479000D01*
X146866000Y-90479000D01*
X146866000Y-91131000D01*
X146866000Y-91131000D01*
G37*
G36*
X139466000Y-91131000D02*
G01*
X137614000Y-91131000D01*
X137614000Y-90479000D01*
X139466000Y-90479000D01*
X139466000Y-91131000D01*
X139466000Y-91131000D01*
G37*
G36*
X164136564Y-87889389D02*
G01*
X164327833Y-87968615D01*
X164327835Y-87968616D01*
X164499973Y-88083635D01*
X164646365Y-88230027D01*
X164744192Y-88376435D01*
X164761385Y-88402167D01*
X164840611Y-88593436D01*
X164881000Y-88796484D01*
X164881000Y-89003516D01*
X164840611Y-89206564D01*
X164761385Y-89397833D01*
X164761384Y-89397835D01*
X164646365Y-89569973D01*
X164499973Y-89716365D01*
X164327835Y-89831384D01*
X164327834Y-89831385D01*
X164327833Y-89831385D01*
X164136564Y-89910611D01*
X163933516Y-89951000D01*
X163726484Y-89951000D01*
X163523436Y-89910611D01*
X163332167Y-89831385D01*
X163332166Y-89831385D01*
X163332165Y-89831384D01*
X163160027Y-89716365D01*
X163013635Y-89569973D01*
X162898616Y-89397835D01*
X162898615Y-89397833D01*
X162819389Y-89206564D01*
X162779000Y-89003516D01*
X162779000Y-88796484D01*
X162819389Y-88593436D01*
X162898615Y-88402167D01*
X162915809Y-88376435D01*
X163013635Y-88230027D01*
X163160027Y-88083635D01*
X163332165Y-87968616D01*
X163332167Y-87968615D01*
X163523436Y-87889389D01*
X163726484Y-87849000D01*
X163933516Y-87849000D01*
X164136564Y-87889389D01*
X164136564Y-87889389D01*
G37*
G36*
X130228273Y-83962858D02*
G01*
X130692525Y-84155157D01*
X130692527Y-84155158D01*
X131110343Y-84434334D01*
X131465666Y-84789657D01*
X131636668Y-85045580D01*
X131744843Y-85207475D01*
X131937142Y-85671727D01*
X132035175Y-86164572D01*
X132035175Y-86667078D01*
X131937142Y-87159923D01*
X131750674Y-87610098D01*
X131744842Y-87624177D01*
X131465666Y-88041993D01*
X131110343Y-88397316D01*
X130692527Y-88676492D01*
X130692526Y-88676493D01*
X130692525Y-88676493D01*
X130228273Y-88868792D01*
X129735428Y-88966825D01*
X129232922Y-88966825D01*
X128740077Y-88868792D01*
X128275825Y-88676493D01*
X128275824Y-88676493D01*
X128275823Y-88676492D01*
X127858007Y-88397316D01*
X127502684Y-88041993D01*
X127223508Y-87624177D01*
X127217676Y-87610098D01*
X127031208Y-87159923D01*
X126933175Y-86667078D01*
X126933175Y-86164572D01*
X127031208Y-85671727D01*
X127223507Y-85207475D01*
X127331682Y-85045580D01*
X127502684Y-84789657D01*
X127858007Y-84434334D01*
X128275823Y-84155158D01*
X128275825Y-84155157D01*
X128740077Y-83962858D01*
X129232922Y-83864825D01*
X129735428Y-83864825D01*
X130228273Y-83962858D01*
X130228273Y-83962858D01*
G37*
G36*
X172194098Y-83907033D02*
G01*
X172635398Y-84089825D01*
X172658352Y-84099333D01*
X173076168Y-84378509D01*
X173431491Y-84733832D01*
X173710667Y-85151648D01*
X173710668Y-85151650D01*
X173902967Y-85615902D01*
X174001000Y-86108747D01*
X174001000Y-86611253D01*
X173902967Y-87104098D01*
X173792574Y-87370610D01*
X173710667Y-87568352D01*
X173431491Y-87986168D01*
X173076168Y-88341491D01*
X172658352Y-88620667D01*
X172658351Y-88620668D01*
X172658350Y-88620668D01*
X172194098Y-88812967D01*
X171701253Y-88911000D01*
X171198747Y-88911000D01*
X170705902Y-88812967D01*
X170241650Y-88620668D01*
X170241649Y-88620668D01*
X170241648Y-88620667D01*
X169823832Y-88341491D01*
X169468509Y-87986168D01*
X169189333Y-87568352D01*
X169107426Y-87370610D01*
X168997033Y-87104098D01*
X168899000Y-86611253D01*
X168899000Y-86108747D01*
X168997033Y-85615902D01*
X169189332Y-85151650D01*
X169189333Y-85151648D01*
X169468509Y-84733832D01*
X169823832Y-84378509D01*
X170241648Y-84099333D01*
X170264602Y-84089825D01*
X170705902Y-83907033D01*
X171198747Y-83809000D01*
X171701253Y-83809000D01*
X172194098Y-83907033D01*
X172194098Y-83907033D01*
G37*
G36*
X151834468Y-86883565D02*
G01*
X151873138Y-86895296D01*
X151908777Y-86914346D01*
X151940017Y-86939983D01*
X151965654Y-86971223D01*
X151984704Y-87006862D01*
X151996435Y-87045532D01*
X152001000Y-87091888D01*
X152001000Y-88168112D01*
X151996435Y-88214468D01*
X151984704Y-88253138D01*
X151965654Y-88288777D01*
X151940017Y-88320017D01*
X151908777Y-88345654D01*
X151873138Y-88364704D01*
X151834468Y-88376435D01*
X151788112Y-88381000D01*
X151136888Y-88381000D01*
X151090532Y-88376435D01*
X151051862Y-88364704D01*
X151016223Y-88345654D01*
X150984983Y-88320017D01*
X150959346Y-88288777D01*
X150940296Y-88253138D01*
X150928565Y-88214468D01*
X150924000Y-88168112D01*
X150924000Y-87091888D01*
X150928565Y-87045532D01*
X150940296Y-87006862D01*
X150959346Y-86971223D01*
X150984983Y-86939983D01*
X151016223Y-86914346D01*
X151051862Y-86895296D01*
X151090532Y-86883565D01*
X151136888Y-86879000D01*
X151788112Y-86879000D01*
X151834468Y-86883565D01*
X151834468Y-86883565D01*
G37*
G36*
X153709468Y-86883565D02*
G01*
X153748138Y-86895296D01*
X153783777Y-86914346D01*
X153815017Y-86939983D01*
X153840654Y-86971223D01*
X153859704Y-87006862D01*
X153871435Y-87045532D01*
X153876000Y-87091888D01*
X153876000Y-88168112D01*
X153871435Y-88214468D01*
X153859704Y-88253138D01*
X153840654Y-88288777D01*
X153815017Y-88320017D01*
X153783777Y-88345654D01*
X153748138Y-88364704D01*
X153709468Y-88376435D01*
X153663112Y-88381000D01*
X153011888Y-88381000D01*
X152965532Y-88376435D01*
X152926862Y-88364704D01*
X152891223Y-88345654D01*
X152859983Y-88320017D01*
X152834346Y-88288777D01*
X152815296Y-88253138D01*
X152803565Y-88214468D01*
X152799000Y-88168112D01*
X152799000Y-87091888D01*
X152803565Y-87045532D01*
X152815296Y-87006862D01*
X152834346Y-86971223D01*
X152859983Y-86939983D01*
X152891223Y-86914346D01*
X152926862Y-86895296D01*
X152965532Y-86883565D01*
X153011888Y-86879000D01*
X153663112Y-86879000D01*
X153709468Y-86883565D01*
X153709468Y-86883565D01*
G37*
G36*
X141554468Y-86763565D02*
G01*
X141593138Y-86775296D01*
X141628777Y-86794346D01*
X141660017Y-86819983D01*
X141685654Y-86851223D01*
X141704704Y-86886862D01*
X141716435Y-86925532D01*
X141721000Y-86971888D01*
X141721000Y-87623112D01*
X141716435Y-87669468D01*
X141704704Y-87708138D01*
X141685654Y-87743777D01*
X141660017Y-87775017D01*
X141628777Y-87800654D01*
X141593138Y-87819704D01*
X141554468Y-87831435D01*
X141508112Y-87836000D01*
X140431888Y-87836000D01*
X140385532Y-87831435D01*
X140346862Y-87819704D01*
X140311223Y-87800654D01*
X140279983Y-87775017D01*
X140254346Y-87743777D01*
X140235296Y-87708138D01*
X140223565Y-87669468D01*
X140219000Y-87623112D01*
X140219000Y-86971888D01*
X140223565Y-86925532D01*
X140235296Y-86886862D01*
X140254346Y-86851223D01*
X140279983Y-86819983D01*
X140311223Y-86794346D01*
X140346862Y-86775296D01*
X140385532Y-86763565D01*
X140431888Y-86759000D01*
X141508112Y-86759000D01*
X141554468Y-86763565D01*
X141554468Y-86763565D01*
G37*
G36*
X136196564Y-85349389D02*
G01*
X136387833Y-85428615D01*
X136387835Y-85428616D01*
X136559973Y-85543635D01*
X136706365Y-85690027D01*
X136801989Y-85833138D01*
X136821385Y-85862167D01*
X136900611Y-86053436D01*
X136941000Y-86256484D01*
X136941000Y-86463516D01*
X136900611Y-86666564D01*
X136824123Y-86851223D01*
X136821384Y-86857835D01*
X136706365Y-87029973D01*
X136559973Y-87176365D01*
X136387835Y-87291384D01*
X136387834Y-87291385D01*
X136387833Y-87291385D01*
X136196564Y-87370611D01*
X135993516Y-87411000D01*
X135786484Y-87411000D01*
X135583436Y-87370611D01*
X135392167Y-87291385D01*
X135392166Y-87291385D01*
X135392165Y-87291384D01*
X135220027Y-87176365D01*
X135073635Y-87029973D01*
X134958616Y-86857835D01*
X134955877Y-86851223D01*
X134879389Y-86666564D01*
X134839000Y-86463516D01*
X134839000Y-86256484D01*
X134879389Y-86053436D01*
X134958615Y-85862167D01*
X134978012Y-85833138D01*
X135073635Y-85690027D01*
X135220027Y-85543635D01*
X135392165Y-85428616D01*
X135392167Y-85428615D01*
X135583436Y-85349389D01*
X135786484Y-85309000D01*
X135993516Y-85309000D01*
X136196564Y-85349389D01*
X136196564Y-85349389D01*
G37*
G36*
X155644468Y-85613565D02*
G01*
X155683138Y-85625296D01*
X155718777Y-85644346D01*
X155750017Y-85669983D01*
X155775654Y-85701223D01*
X155794704Y-85736862D01*
X155806435Y-85775532D01*
X155811000Y-85821888D01*
X155811000Y-86898112D01*
X155806435Y-86944468D01*
X155794704Y-86983138D01*
X155775654Y-87018777D01*
X155750017Y-87050017D01*
X155718777Y-87075654D01*
X155683138Y-87094704D01*
X155644468Y-87106435D01*
X155598112Y-87111000D01*
X154946888Y-87111000D01*
X154900532Y-87106435D01*
X154861862Y-87094704D01*
X154826223Y-87075654D01*
X154794983Y-87050017D01*
X154769346Y-87018777D01*
X154750296Y-86983138D01*
X154738565Y-86944468D01*
X154734000Y-86898112D01*
X154734000Y-85821888D01*
X154738565Y-85775532D01*
X154750296Y-85736862D01*
X154769346Y-85701223D01*
X154794983Y-85669983D01*
X154826223Y-85644346D01*
X154861862Y-85625296D01*
X154900532Y-85613565D01*
X154946888Y-85609000D01*
X155598112Y-85609000D01*
X155644468Y-85613565D01*
X155644468Y-85613565D01*
G37*
G36*
X147691968Y-85613565D02*
G01*
X147730638Y-85625296D01*
X147766277Y-85644346D01*
X147797517Y-85669983D01*
X147823154Y-85701223D01*
X147842204Y-85736862D01*
X147853935Y-85775532D01*
X147858500Y-85821888D01*
X147858500Y-86898112D01*
X147853935Y-86944468D01*
X147842204Y-86983138D01*
X147823154Y-87018777D01*
X147797517Y-87050017D01*
X147766277Y-87075654D01*
X147730638Y-87094704D01*
X147691968Y-87106435D01*
X147645612Y-87111000D01*
X146994388Y-87111000D01*
X146948032Y-87106435D01*
X146909362Y-87094704D01*
X146873723Y-87075654D01*
X146842483Y-87050017D01*
X146816846Y-87018777D01*
X146797796Y-86983138D01*
X146786065Y-86944468D01*
X146781500Y-86898112D01*
X146781500Y-85821888D01*
X146786065Y-85775532D01*
X146797796Y-85736862D01*
X146816846Y-85701223D01*
X146842483Y-85669983D01*
X146873723Y-85644346D01*
X146909362Y-85625296D01*
X146948032Y-85613565D01*
X146994388Y-85609000D01*
X147645612Y-85609000D01*
X147691968Y-85613565D01*
X147691968Y-85613565D01*
G37*
G36*
X145816968Y-85613565D02*
G01*
X145855638Y-85625296D01*
X145891277Y-85644346D01*
X145922517Y-85669983D01*
X145948154Y-85701223D01*
X145967204Y-85736862D01*
X145978935Y-85775532D01*
X145983500Y-85821888D01*
X145983500Y-86898112D01*
X145978935Y-86944468D01*
X145967204Y-86983138D01*
X145948154Y-87018777D01*
X145922517Y-87050017D01*
X145891277Y-87075654D01*
X145855638Y-87094704D01*
X145816968Y-87106435D01*
X145770612Y-87111000D01*
X145119388Y-87111000D01*
X145073032Y-87106435D01*
X145034362Y-87094704D01*
X144998723Y-87075654D01*
X144967483Y-87050017D01*
X144941846Y-87018777D01*
X144922796Y-86983138D01*
X144911065Y-86944468D01*
X144906500Y-86898112D01*
X144906500Y-85821888D01*
X144911065Y-85775532D01*
X144922796Y-85736862D01*
X144941846Y-85701223D01*
X144967483Y-85669983D01*
X144998723Y-85644346D01*
X145034362Y-85625296D01*
X145073032Y-85613565D01*
X145119388Y-85609000D01*
X145770612Y-85609000D01*
X145816968Y-85613565D01*
X145816968Y-85613565D01*
G37*
G36*
X157519468Y-85613565D02*
G01*
X157558138Y-85625296D01*
X157593777Y-85644346D01*
X157625017Y-85669983D01*
X157650654Y-85701223D01*
X157669704Y-85736862D01*
X157681435Y-85775532D01*
X157686000Y-85821888D01*
X157686000Y-86898112D01*
X157681435Y-86944468D01*
X157669704Y-86983138D01*
X157650654Y-87018777D01*
X157625017Y-87050017D01*
X157593777Y-87075654D01*
X157558138Y-87094704D01*
X157519468Y-87106435D01*
X157473112Y-87111000D01*
X156821888Y-87111000D01*
X156775532Y-87106435D01*
X156736862Y-87094704D01*
X156701223Y-87075654D01*
X156669983Y-87050017D01*
X156644346Y-87018777D01*
X156625296Y-86983138D01*
X156613565Y-86944468D01*
X156609000Y-86898112D01*
X156609000Y-85821888D01*
X156613565Y-85775532D01*
X156625296Y-85736862D01*
X156644346Y-85701223D01*
X156669983Y-85669983D01*
X156701223Y-85644346D01*
X156736862Y-85625296D01*
X156775532Y-85613565D01*
X156821888Y-85609000D01*
X157473112Y-85609000D01*
X157519468Y-85613565D01*
X157519468Y-85613565D01*
G37*
G36*
X141554468Y-84888565D02*
G01*
X141593138Y-84900296D01*
X141628777Y-84919346D01*
X141660017Y-84944983D01*
X141685654Y-84976223D01*
X141704704Y-85011862D01*
X141716435Y-85050532D01*
X141721000Y-85096888D01*
X141721000Y-85748112D01*
X141716435Y-85794468D01*
X141704704Y-85833138D01*
X141685654Y-85868777D01*
X141660017Y-85900017D01*
X141628777Y-85925654D01*
X141593138Y-85944704D01*
X141554468Y-85956435D01*
X141508112Y-85961000D01*
X140431888Y-85961000D01*
X140385532Y-85956435D01*
X140346862Y-85944704D01*
X140311223Y-85925654D01*
X140279983Y-85900017D01*
X140254346Y-85868777D01*
X140235296Y-85833138D01*
X140223565Y-85794468D01*
X140219000Y-85748112D01*
X140219000Y-85096888D01*
X140223565Y-85050532D01*
X140235296Y-85011862D01*
X140254346Y-84976223D01*
X140279983Y-84944983D01*
X140311223Y-84919346D01*
X140346862Y-84900296D01*
X140385532Y-84888565D01*
X140431888Y-84884000D01*
X141508112Y-84884000D01*
X141554468Y-84888565D01*
X141554468Y-84888565D01*
G37*
M02*
