G04 #@! TF.GenerationSoftware,KiCad,Pcbnew,(5.1.4)-1*
G04 #@! TF.CreationDate,2020-01-22T19:26:31-05:00*
G04 #@! TF.ProjectId,UniversalLM393,556e6976-6572-4736-916c-4c4d3339332e,rev?*
G04 #@! TF.SameCoordinates,Original*
G04 #@! TF.FileFunction,Copper,L2,Bot*
G04 #@! TF.FilePolarity,Positive*
%FSLAX46Y46*%
G04 Gerber Fmt 4.6, Leading zero omitted, Abs format (unit mm)*
G04 Created by KiCad (PCBNEW (5.1.4)-1) date 2020-01-22 19:26:31*
%MOMM*%
%LPD*%
G04 APERTURE LIST*
%ADD10C,2.100000*%
%ADD11R,2.100000X2.100000*%
%ADD12C,0.800000*%
%ADD13C,5.000000*%
%ADD14C,2.000000*%
%ADD15O,1.700000X1.700000*%
%ADD16R,1.700000X1.700000*%
%ADD17C,0.250000*%
%ADD18C,0.254000*%
G04 APERTURE END LIST*
D10*
X132080000Y-91440000D03*
D11*
X132080000Y-93980000D03*
D12*
X172775825Y-101544175D03*
X171450000Y-100995000D03*
X170124175Y-101544175D03*
X169575000Y-102870000D03*
X170124175Y-104195825D03*
X171450000Y-104745000D03*
X172775825Y-104195825D03*
X173325000Y-102870000D03*
D13*
X171450000Y-102870000D03*
D12*
X130865825Y-101544175D03*
X129540000Y-100995000D03*
X128214175Y-101544175D03*
X127665000Y-102870000D03*
X128214175Y-104195825D03*
X129540000Y-104745000D03*
X130865825Y-104195825D03*
X131415000Y-102870000D03*
D13*
X129540000Y-102870000D03*
D12*
X172775825Y-85034175D03*
X171450000Y-84485000D03*
X170124175Y-85034175D03*
X169575000Y-86360000D03*
X170124175Y-87685825D03*
X171450000Y-88235000D03*
X172775825Y-87685825D03*
X173325000Y-86360000D03*
D13*
X171450000Y-86360000D03*
D12*
X130810000Y-85090000D03*
X129484175Y-84540825D03*
X128158350Y-85090000D03*
X127609175Y-86415825D03*
X128158350Y-87741650D03*
X129484175Y-88290825D03*
X130810000Y-87741650D03*
X131359175Y-86415825D03*
D13*
X129484175Y-86415825D03*
D14*
X163830000Y-95250000D03*
X135890000Y-86360000D03*
X163830000Y-100330000D03*
X163830000Y-88900000D03*
D15*
X167640000Y-99060000D03*
X167640000Y-96520000D03*
X167640000Y-93980000D03*
D16*
X167640000Y-91440000D03*
D12*
X139700000Y-97790000D03*
X147320000Y-101600000D03*
X139700000Y-97790000D03*
X154940000Y-101600000D03*
X146050000Y-88900000D03*
X152400000Y-96520000D03*
X157480000Y-90170000D03*
X143842500Y-87297500D03*
X153670000Y-92710000D03*
X140970000Y-92710000D03*
D17*
X139700000Y-97790000D02*
X139700000Y-97790000D01*
X143510000Y-97790000D02*
X147320000Y-101600000D01*
X139700000Y-97790000D02*
X143510000Y-97790000D01*
X152400000Y-96520000D02*
X156210000Y-96520000D01*
X156210000Y-91440000D02*
X157480000Y-90170000D01*
X156210000Y-96520000D02*
X156210000Y-91440000D01*
X152400000Y-96520000D02*
X154940000Y-96520000D01*
X144447500Y-87297500D02*
X146050000Y-88900000D01*
X143842500Y-87297500D02*
X144447500Y-87297500D01*
X154940000Y-101600000D02*
X154940000Y-96520000D01*
X153670000Y-92710000D02*
X140970000Y-92710000D01*
D18*
G36*
X168828882Y-84612627D02*
G01*
X168538351Y-85157557D01*
X168359713Y-85748696D01*
X168299832Y-86363328D01*
X168361010Y-86977831D01*
X168540897Y-87568592D01*
X168828882Y-88107373D01*
X169246852Y-88383543D01*
X171270395Y-86360000D01*
X171256253Y-86345858D01*
X171435858Y-86166253D01*
X171450000Y-86180395D01*
X171464143Y-86166253D01*
X171643748Y-86345858D01*
X171629605Y-86360000D01*
X171643748Y-86374143D01*
X171464143Y-86553748D01*
X171450000Y-86539605D01*
X169426457Y-88563148D01*
X169702627Y-88981118D01*
X170247557Y-89271649D01*
X170838696Y-89450287D01*
X171453328Y-89510168D01*
X172067831Y-89448990D01*
X172658592Y-89269103D01*
X173197373Y-88981118D01*
X173330001Y-88780392D01*
X173330000Y-100449607D01*
X173197373Y-100248882D01*
X172652443Y-99958351D01*
X172061304Y-99779713D01*
X171446672Y-99719832D01*
X170832169Y-99781010D01*
X170241408Y-99960897D01*
X169702627Y-100248882D01*
X169426457Y-100666852D01*
X171450000Y-102690395D01*
X171464143Y-102676253D01*
X171643748Y-102855858D01*
X171629605Y-102870000D01*
X171643748Y-102884143D01*
X171464143Y-103063748D01*
X171450000Y-103049605D01*
X171435858Y-103063748D01*
X171256253Y-102884143D01*
X171270395Y-102870000D01*
X169246852Y-100846457D01*
X168828882Y-101122627D01*
X168538351Y-101667557D01*
X168359713Y-102258696D01*
X168299832Y-102873328D01*
X168361010Y-103487831D01*
X168540897Y-104078592D01*
X168828882Y-104617373D01*
X169029607Y-104750000D01*
X131960393Y-104750000D01*
X132161118Y-104617373D01*
X132451649Y-104072443D01*
X132630287Y-103481304D01*
X132690168Y-102866672D01*
X132628990Y-102252169D01*
X132449103Y-101661408D01*
X132161118Y-101122627D01*
X131743148Y-100846457D01*
X129719605Y-102870000D01*
X129733748Y-102884143D01*
X129554143Y-103063748D01*
X129540000Y-103049605D01*
X129525858Y-103063748D01*
X129346253Y-102884143D01*
X129360395Y-102870000D01*
X129346253Y-102855858D01*
X129525858Y-102676253D01*
X129540000Y-102690395D01*
X131563543Y-100666852D01*
X131287373Y-100248882D01*
X130742443Y-99958351D01*
X130151304Y-99779713D01*
X129536672Y-99719832D01*
X128922169Y-99781010D01*
X128331408Y-99960897D01*
X127792627Y-100248882D01*
X127660000Y-100449607D01*
X127660000Y-97688061D01*
X138665000Y-97688061D01*
X138665000Y-97891939D01*
X138704774Y-98091898D01*
X138782795Y-98280256D01*
X138896063Y-98449774D01*
X139040226Y-98593937D01*
X139209744Y-98707205D01*
X139398102Y-98785226D01*
X139598061Y-98825000D01*
X139801939Y-98825000D01*
X140001898Y-98785226D01*
X140190256Y-98707205D01*
X140359774Y-98593937D01*
X140403711Y-98550000D01*
X143195199Y-98550000D01*
X146285000Y-101639802D01*
X146285000Y-101701939D01*
X146324774Y-101901898D01*
X146402795Y-102090256D01*
X146516063Y-102259774D01*
X146660226Y-102403937D01*
X146829744Y-102517205D01*
X147018102Y-102595226D01*
X147218061Y-102635000D01*
X147421939Y-102635000D01*
X147621898Y-102595226D01*
X147810256Y-102517205D01*
X147979774Y-102403937D01*
X148123937Y-102259774D01*
X148237205Y-102090256D01*
X148315226Y-101901898D01*
X148355000Y-101701939D01*
X148355000Y-101498061D01*
X148315226Y-101298102D01*
X148237205Y-101109744D01*
X148123937Y-100940226D01*
X147979774Y-100796063D01*
X147810256Y-100682795D01*
X147621898Y-100604774D01*
X147421939Y-100565000D01*
X147359802Y-100565000D01*
X144073804Y-97279003D01*
X144050001Y-97249999D01*
X143934276Y-97155026D01*
X143802247Y-97084454D01*
X143658986Y-97040997D01*
X143547333Y-97030000D01*
X143547322Y-97030000D01*
X143510000Y-97026324D01*
X143472678Y-97030000D01*
X140403711Y-97030000D01*
X140359774Y-96986063D01*
X140190256Y-96872795D01*
X140001898Y-96794774D01*
X139801939Y-96755000D01*
X139598061Y-96755000D01*
X139398102Y-96794774D01*
X139209744Y-96872795D01*
X139040226Y-96986063D01*
X138896063Y-97130226D01*
X138782795Y-97299744D01*
X138704774Y-97488102D01*
X138665000Y-97688061D01*
X127660000Y-97688061D01*
X127660000Y-96418061D01*
X151365000Y-96418061D01*
X151365000Y-96621939D01*
X151404774Y-96821898D01*
X151482795Y-97010256D01*
X151596063Y-97179774D01*
X151740226Y-97323937D01*
X151909744Y-97437205D01*
X152098102Y-97515226D01*
X152298061Y-97555000D01*
X152501939Y-97555000D01*
X152701898Y-97515226D01*
X152890256Y-97437205D01*
X153059774Y-97323937D01*
X153103711Y-97280000D01*
X154180001Y-97280000D01*
X154180000Y-100896289D01*
X154136063Y-100940226D01*
X154022795Y-101109744D01*
X153944774Y-101298102D01*
X153905000Y-101498061D01*
X153905000Y-101701939D01*
X153944774Y-101901898D01*
X154022795Y-102090256D01*
X154136063Y-102259774D01*
X154280226Y-102403937D01*
X154449744Y-102517205D01*
X154638102Y-102595226D01*
X154838061Y-102635000D01*
X155041939Y-102635000D01*
X155241898Y-102595226D01*
X155430256Y-102517205D01*
X155599774Y-102403937D01*
X155743937Y-102259774D01*
X155857205Y-102090256D01*
X155935226Y-101901898D01*
X155975000Y-101701939D01*
X155975000Y-101498061D01*
X155968506Y-101465413D01*
X162874192Y-101465413D01*
X162969956Y-101729814D01*
X163259571Y-101870704D01*
X163571108Y-101952384D01*
X163892595Y-101971718D01*
X164211675Y-101927961D01*
X164516088Y-101822795D01*
X164690044Y-101729814D01*
X164785808Y-101465413D01*
X163830000Y-100509605D01*
X162874192Y-101465413D01*
X155968506Y-101465413D01*
X155935226Y-101298102D01*
X155857205Y-101109744D01*
X155743937Y-100940226D01*
X155700000Y-100896289D01*
X155700000Y-100392595D01*
X162188282Y-100392595D01*
X162232039Y-100711675D01*
X162337205Y-101016088D01*
X162430186Y-101190044D01*
X162694587Y-101285808D01*
X163650395Y-100330000D01*
X164009605Y-100330000D01*
X164965413Y-101285808D01*
X165229814Y-101190044D01*
X165370704Y-100900429D01*
X165452384Y-100588892D01*
X165471718Y-100267405D01*
X165427961Y-99948325D01*
X165322795Y-99643912D01*
X165229814Y-99469956D01*
X165083301Y-99416890D01*
X166198524Y-99416890D01*
X166243175Y-99564099D01*
X166368359Y-99826920D01*
X166542412Y-100060269D01*
X166758645Y-100255178D01*
X167008748Y-100404157D01*
X167283109Y-100501481D01*
X167513000Y-100380814D01*
X167513000Y-99187000D01*
X167767000Y-99187000D01*
X167767000Y-100380814D01*
X167996891Y-100501481D01*
X168271252Y-100404157D01*
X168521355Y-100255178D01*
X168737588Y-100060269D01*
X168911641Y-99826920D01*
X169036825Y-99564099D01*
X169081476Y-99416890D01*
X168960155Y-99187000D01*
X167767000Y-99187000D01*
X167513000Y-99187000D01*
X166319845Y-99187000D01*
X166198524Y-99416890D01*
X165083301Y-99416890D01*
X164965413Y-99374192D01*
X164009605Y-100330000D01*
X163650395Y-100330000D01*
X162694587Y-99374192D01*
X162430186Y-99469956D01*
X162289296Y-99759571D01*
X162207616Y-100071108D01*
X162188282Y-100392595D01*
X155700000Y-100392595D01*
X155700000Y-99194587D01*
X162874192Y-99194587D01*
X163830000Y-100150395D01*
X164785808Y-99194587D01*
X164690044Y-98930186D01*
X164400429Y-98789296D01*
X164088892Y-98707616D01*
X163767405Y-98688282D01*
X163448325Y-98732039D01*
X163143912Y-98837205D01*
X162969956Y-98930186D01*
X162874192Y-99194587D01*
X155700000Y-99194587D01*
X155700000Y-97280000D01*
X156172667Y-97280000D01*
X156210000Y-97283677D01*
X156247333Y-97280000D01*
X156358986Y-97269003D01*
X156502247Y-97225546D01*
X156634276Y-97154974D01*
X156750001Y-97060001D01*
X156844974Y-96944276D01*
X156915546Y-96812247D01*
X156959003Y-96668986D01*
X156973677Y-96520000D01*
X156970000Y-96482667D01*
X156970000Y-95088967D01*
X162195000Y-95088967D01*
X162195000Y-95411033D01*
X162257832Y-95726912D01*
X162381082Y-96024463D01*
X162560013Y-96292252D01*
X162787748Y-96519987D01*
X163055537Y-96698918D01*
X163353088Y-96822168D01*
X163668967Y-96885000D01*
X163991033Y-96885000D01*
X164306912Y-96822168D01*
X164604463Y-96698918D01*
X164872252Y-96519987D01*
X165099987Y-96292252D01*
X165278918Y-96024463D01*
X165402168Y-95726912D01*
X165465000Y-95411033D01*
X165465000Y-95088967D01*
X165402168Y-94773088D01*
X165278918Y-94475537D01*
X165099987Y-94207748D01*
X164872252Y-93980013D01*
X164872233Y-93980000D01*
X166147815Y-93980000D01*
X166176487Y-94271111D01*
X166261401Y-94551034D01*
X166399294Y-94809014D01*
X166584866Y-95035134D01*
X166810986Y-95220706D01*
X166865791Y-95250000D01*
X166810986Y-95279294D01*
X166584866Y-95464866D01*
X166399294Y-95690986D01*
X166261401Y-95948966D01*
X166176487Y-96228889D01*
X166147815Y-96520000D01*
X166176487Y-96811111D01*
X166261401Y-97091034D01*
X166399294Y-97349014D01*
X166584866Y-97575134D01*
X166810986Y-97760706D01*
X166875523Y-97795201D01*
X166758645Y-97864822D01*
X166542412Y-98059731D01*
X166368359Y-98293080D01*
X166243175Y-98555901D01*
X166198524Y-98703110D01*
X166319845Y-98933000D01*
X167513000Y-98933000D01*
X167513000Y-98913000D01*
X167767000Y-98913000D01*
X167767000Y-98933000D01*
X168960155Y-98933000D01*
X169081476Y-98703110D01*
X169036825Y-98555901D01*
X168911641Y-98293080D01*
X168737588Y-98059731D01*
X168521355Y-97864822D01*
X168404477Y-97795201D01*
X168469014Y-97760706D01*
X168695134Y-97575134D01*
X168880706Y-97349014D01*
X169018599Y-97091034D01*
X169103513Y-96811111D01*
X169132185Y-96520000D01*
X169103513Y-96228889D01*
X169018599Y-95948966D01*
X168880706Y-95690986D01*
X168695134Y-95464866D01*
X168469014Y-95279294D01*
X168414209Y-95250000D01*
X168469014Y-95220706D01*
X168695134Y-95035134D01*
X168880706Y-94809014D01*
X169018599Y-94551034D01*
X169103513Y-94271111D01*
X169132185Y-93980000D01*
X169103513Y-93688889D01*
X169018599Y-93408966D01*
X168880706Y-93150986D01*
X168695134Y-92924866D01*
X168665313Y-92900393D01*
X168734180Y-92879502D01*
X168844494Y-92820537D01*
X168941185Y-92741185D01*
X169020537Y-92644494D01*
X169079502Y-92534180D01*
X169115812Y-92414482D01*
X169128072Y-92290000D01*
X169128072Y-90590000D01*
X169115812Y-90465518D01*
X169079502Y-90345820D01*
X169020537Y-90235506D01*
X168941185Y-90138815D01*
X168844494Y-90059463D01*
X168734180Y-90000498D01*
X168614482Y-89964188D01*
X168490000Y-89951928D01*
X166790000Y-89951928D01*
X166665518Y-89964188D01*
X166545820Y-90000498D01*
X166435506Y-90059463D01*
X166338815Y-90138815D01*
X166259463Y-90235506D01*
X166200498Y-90345820D01*
X166164188Y-90465518D01*
X166151928Y-90590000D01*
X166151928Y-92290000D01*
X166164188Y-92414482D01*
X166200498Y-92534180D01*
X166259463Y-92644494D01*
X166338815Y-92741185D01*
X166435506Y-92820537D01*
X166545820Y-92879502D01*
X166614687Y-92900393D01*
X166584866Y-92924866D01*
X166399294Y-93150986D01*
X166261401Y-93408966D01*
X166176487Y-93688889D01*
X166147815Y-93980000D01*
X164872233Y-93980000D01*
X164604463Y-93801082D01*
X164306912Y-93677832D01*
X163991033Y-93615000D01*
X163668967Y-93615000D01*
X163353088Y-93677832D01*
X163055537Y-93801082D01*
X162787748Y-93980013D01*
X162560013Y-94207748D01*
X162381082Y-94475537D01*
X162257832Y-94773088D01*
X162195000Y-95088967D01*
X156970000Y-95088967D01*
X156970000Y-91754801D01*
X157519802Y-91205000D01*
X157581939Y-91205000D01*
X157781898Y-91165226D01*
X157970256Y-91087205D01*
X158139774Y-90973937D01*
X158283937Y-90829774D01*
X158397205Y-90660256D01*
X158475226Y-90471898D01*
X158515000Y-90271939D01*
X158515000Y-90068061D01*
X158475226Y-89868102D01*
X158397205Y-89679744D01*
X158283937Y-89510226D01*
X158139774Y-89366063D01*
X157970256Y-89252795D01*
X157781898Y-89174774D01*
X157581939Y-89135000D01*
X157378061Y-89135000D01*
X157178102Y-89174774D01*
X156989744Y-89252795D01*
X156820226Y-89366063D01*
X156676063Y-89510226D01*
X156562795Y-89679744D01*
X156484774Y-89868102D01*
X156445000Y-90068061D01*
X156445000Y-90130198D01*
X155698998Y-90876201D01*
X155670000Y-90899999D01*
X155646202Y-90928997D01*
X155646201Y-90928998D01*
X155575026Y-91015724D01*
X155504454Y-91147754D01*
X155460998Y-91291015D01*
X155446324Y-91440000D01*
X155450001Y-91477332D01*
X155450000Y-95760000D01*
X154977333Y-95760000D01*
X154940000Y-95756323D01*
X154902667Y-95760000D01*
X153103711Y-95760000D01*
X153059774Y-95716063D01*
X152890256Y-95602795D01*
X152701898Y-95524774D01*
X152501939Y-95485000D01*
X152298061Y-95485000D01*
X152098102Y-95524774D01*
X151909744Y-95602795D01*
X151740226Y-95716063D01*
X151596063Y-95860226D01*
X151482795Y-96029744D01*
X151404774Y-96218102D01*
X151365000Y-96418061D01*
X127660000Y-96418061D01*
X127660000Y-95030000D01*
X130391928Y-95030000D01*
X130404188Y-95154482D01*
X130440498Y-95274180D01*
X130499463Y-95384494D01*
X130578815Y-95481185D01*
X130675506Y-95560537D01*
X130785820Y-95619502D01*
X130905518Y-95655812D01*
X131030000Y-95668072D01*
X131794250Y-95665000D01*
X131953000Y-95506250D01*
X131953000Y-94107000D01*
X132207000Y-94107000D01*
X132207000Y-95506250D01*
X132365750Y-95665000D01*
X133130000Y-95668072D01*
X133254482Y-95655812D01*
X133374180Y-95619502D01*
X133484494Y-95560537D01*
X133581185Y-95481185D01*
X133660537Y-95384494D01*
X133719502Y-95274180D01*
X133755812Y-95154482D01*
X133768072Y-95030000D01*
X133765000Y-94265750D01*
X133606250Y-94107000D01*
X132207000Y-94107000D01*
X131953000Y-94107000D01*
X130553750Y-94107000D01*
X130395000Y-94265750D01*
X130391928Y-95030000D01*
X127660000Y-95030000D01*
X127660000Y-92930000D01*
X130391928Y-92930000D01*
X130395000Y-93694250D01*
X130553750Y-93853000D01*
X131953000Y-93853000D01*
X131953000Y-93833000D01*
X132207000Y-93833000D01*
X132207000Y-93853000D01*
X133606250Y-93853000D01*
X133765000Y-93694250D01*
X133768072Y-92930000D01*
X133755812Y-92805518D01*
X133719502Y-92685820D01*
X133677939Y-92608061D01*
X139935000Y-92608061D01*
X139935000Y-92811939D01*
X139974774Y-93011898D01*
X140052795Y-93200256D01*
X140166063Y-93369774D01*
X140310226Y-93513937D01*
X140479744Y-93627205D01*
X140668102Y-93705226D01*
X140868061Y-93745000D01*
X141071939Y-93745000D01*
X141271898Y-93705226D01*
X141460256Y-93627205D01*
X141629774Y-93513937D01*
X141673711Y-93470000D01*
X152966289Y-93470000D01*
X153010226Y-93513937D01*
X153179744Y-93627205D01*
X153368102Y-93705226D01*
X153568061Y-93745000D01*
X153771939Y-93745000D01*
X153971898Y-93705226D01*
X154160256Y-93627205D01*
X154329774Y-93513937D01*
X154473937Y-93369774D01*
X154587205Y-93200256D01*
X154665226Y-93011898D01*
X154705000Y-92811939D01*
X154705000Y-92608061D01*
X154665226Y-92408102D01*
X154587205Y-92219744D01*
X154473937Y-92050226D01*
X154329774Y-91906063D01*
X154160256Y-91792795D01*
X153971898Y-91714774D01*
X153771939Y-91675000D01*
X153568061Y-91675000D01*
X153368102Y-91714774D01*
X153179744Y-91792795D01*
X153010226Y-91906063D01*
X152966289Y-91950000D01*
X141673711Y-91950000D01*
X141629774Y-91906063D01*
X141460256Y-91792795D01*
X141271898Y-91714774D01*
X141071939Y-91675000D01*
X140868061Y-91675000D01*
X140668102Y-91714774D01*
X140479744Y-91792795D01*
X140310226Y-91906063D01*
X140166063Y-92050226D01*
X140052795Y-92219744D01*
X139974774Y-92408102D01*
X139935000Y-92608061D01*
X133677939Y-92608061D01*
X133660537Y-92575506D01*
X133581185Y-92478815D01*
X133484494Y-92399463D01*
X133470454Y-92391958D01*
X133573228Y-92238147D01*
X133700246Y-91931496D01*
X133765000Y-91605958D01*
X133765000Y-91274042D01*
X133700246Y-90948504D01*
X133573228Y-90641853D01*
X133388825Y-90365875D01*
X133154125Y-90131175D01*
X132878147Y-89946772D01*
X132571496Y-89819754D01*
X132245958Y-89755000D01*
X131914042Y-89755000D01*
X131588504Y-89819754D01*
X131281853Y-89946772D01*
X131005875Y-90131175D01*
X130771175Y-90365875D01*
X130586772Y-90641853D01*
X130459754Y-90948504D01*
X130395000Y-91274042D01*
X130395000Y-91605958D01*
X130459754Y-91931496D01*
X130586772Y-92238147D01*
X130689546Y-92391958D01*
X130675506Y-92399463D01*
X130578815Y-92478815D01*
X130499463Y-92575506D01*
X130440498Y-92685820D01*
X130404188Y-92805518D01*
X130391928Y-92930000D01*
X127660000Y-92930000D01*
X127660000Y-88920707D01*
X127736802Y-89036943D01*
X128281732Y-89327474D01*
X128872871Y-89506112D01*
X129487503Y-89565993D01*
X130102006Y-89504815D01*
X130692767Y-89324928D01*
X131231548Y-89036943D01*
X131507718Y-88618973D01*
X129484175Y-86595430D01*
X129470033Y-86609573D01*
X129290428Y-86429968D01*
X129304570Y-86415825D01*
X129290428Y-86401683D01*
X129470033Y-86222078D01*
X129484175Y-86236220D01*
X129498318Y-86222078D01*
X129677923Y-86401683D01*
X129663780Y-86415825D01*
X131687323Y-88439368D01*
X132105293Y-88163198D01*
X132395824Y-87618268D01*
X132574462Y-87027129D01*
X132634343Y-86412497D01*
X132613085Y-86198967D01*
X134255000Y-86198967D01*
X134255000Y-86521033D01*
X134317832Y-86836912D01*
X134441082Y-87134463D01*
X134620013Y-87402252D01*
X134847748Y-87629987D01*
X135115537Y-87808918D01*
X135413088Y-87932168D01*
X135728967Y-87995000D01*
X136051033Y-87995000D01*
X136366912Y-87932168D01*
X136664463Y-87808918D01*
X136932252Y-87629987D01*
X137159987Y-87402252D01*
X137298093Y-87195561D01*
X142807500Y-87195561D01*
X142807500Y-87399439D01*
X142847274Y-87599398D01*
X142925295Y-87787756D01*
X143038563Y-87957274D01*
X143182726Y-88101437D01*
X143352244Y-88214705D01*
X143540602Y-88292726D01*
X143740561Y-88332500D01*
X143944439Y-88332500D01*
X144144398Y-88292726D01*
X144302455Y-88227256D01*
X145015000Y-88939802D01*
X145015000Y-89001939D01*
X145054774Y-89201898D01*
X145132795Y-89390256D01*
X145246063Y-89559774D01*
X145390226Y-89703937D01*
X145559744Y-89817205D01*
X145748102Y-89895226D01*
X145948061Y-89935000D01*
X146151939Y-89935000D01*
X146351898Y-89895226D01*
X146540256Y-89817205D01*
X146709774Y-89703937D01*
X146853937Y-89559774D01*
X146967205Y-89390256D01*
X147045226Y-89201898D01*
X147085000Y-89001939D01*
X147085000Y-88798061D01*
X147073246Y-88738967D01*
X162195000Y-88738967D01*
X162195000Y-89061033D01*
X162257832Y-89376912D01*
X162381082Y-89674463D01*
X162560013Y-89942252D01*
X162787748Y-90169987D01*
X163055537Y-90348918D01*
X163353088Y-90472168D01*
X163668967Y-90535000D01*
X163991033Y-90535000D01*
X164306912Y-90472168D01*
X164604463Y-90348918D01*
X164872252Y-90169987D01*
X165099987Y-89942252D01*
X165278918Y-89674463D01*
X165402168Y-89376912D01*
X165465000Y-89061033D01*
X165465000Y-88738967D01*
X165402168Y-88423088D01*
X165278918Y-88125537D01*
X165099987Y-87857748D01*
X164872252Y-87630013D01*
X164604463Y-87451082D01*
X164306912Y-87327832D01*
X163991033Y-87265000D01*
X163668967Y-87265000D01*
X163353088Y-87327832D01*
X163055537Y-87451082D01*
X162787748Y-87630013D01*
X162560013Y-87857748D01*
X162381082Y-88125537D01*
X162257832Y-88423088D01*
X162195000Y-88738967D01*
X147073246Y-88738967D01*
X147045226Y-88598102D01*
X146967205Y-88409744D01*
X146853937Y-88240226D01*
X146709774Y-88096063D01*
X146540256Y-87982795D01*
X146351898Y-87904774D01*
X146151939Y-87865000D01*
X146089802Y-87865000D01*
X145011304Y-86786503D01*
X144987501Y-86757499D01*
X144871776Y-86662526D01*
X144739747Y-86591954D01*
X144596486Y-86548497D01*
X144552917Y-86544206D01*
X144502274Y-86493563D01*
X144332756Y-86380295D01*
X144144398Y-86302274D01*
X143944439Y-86262500D01*
X143740561Y-86262500D01*
X143540602Y-86302274D01*
X143352244Y-86380295D01*
X143182726Y-86493563D01*
X143038563Y-86637726D01*
X142925295Y-86807244D01*
X142847274Y-86995602D01*
X142807500Y-87195561D01*
X137298093Y-87195561D01*
X137338918Y-87134463D01*
X137462168Y-86836912D01*
X137525000Y-86521033D01*
X137525000Y-86198967D01*
X137462168Y-85883088D01*
X137338918Y-85585537D01*
X137159987Y-85317748D01*
X136932252Y-85090013D01*
X136664463Y-84911082D01*
X136366912Y-84787832D01*
X136051033Y-84725000D01*
X135728967Y-84725000D01*
X135413088Y-84787832D01*
X135115537Y-84911082D01*
X134847748Y-85090013D01*
X134620013Y-85317748D01*
X134441082Y-85585537D01*
X134317832Y-85883088D01*
X134255000Y-86198967D01*
X132613085Y-86198967D01*
X132573165Y-85797994D01*
X132393278Y-85207233D01*
X132105293Y-84668452D01*
X131820080Y-84480000D01*
X169029607Y-84480000D01*
X168828882Y-84612627D01*
X168828882Y-84612627D01*
G37*
X168828882Y-84612627D02*
X168538351Y-85157557D01*
X168359713Y-85748696D01*
X168299832Y-86363328D01*
X168361010Y-86977831D01*
X168540897Y-87568592D01*
X168828882Y-88107373D01*
X169246852Y-88383543D01*
X171270395Y-86360000D01*
X171256253Y-86345858D01*
X171435858Y-86166253D01*
X171450000Y-86180395D01*
X171464143Y-86166253D01*
X171643748Y-86345858D01*
X171629605Y-86360000D01*
X171643748Y-86374143D01*
X171464143Y-86553748D01*
X171450000Y-86539605D01*
X169426457Y-88563148D01*
X169702627Y-88981118D01*
X170247557Y-89271649D01*
X170838696Y-89450287D01*
X171453328Y-89510168D01*
X172067831Y-89448990D01*
X172658592Y-89269103D01*
X173197373Y-88981118D01*
X173330001Y-88780392D01*
X173330000Y-100449607D01*
X173197373Y-100248882D01*
X172652443Y-99958351D01*
X172061304Y-99779713D01*
X171446672Y-99719832D01*
X170832169Y-99781010D01*
X170241408Y-99960897D01*
X169702627Y-100248882D01*
X169426457Y-100666852D01*
X171450000Y-102690395D01*
X171464143Y-102676253D01*
X171643748Y-102855858D01*
X171629605Y-102870000D01*
X171643748Y-102884143D01*
X171464143Y-103063748D01*
X171450000Y-103049605D01*
X171435858Y-103063748D01*
X171256253Y-102884143D01*
X171270395Y-102870000D01*
X169246852Y-100846457D01*
X168828882Y-101122627D01*
X168538351Y-101667557D01*
X168359713Y-102258696D01*
X168299832Y-102873328D01*
X168361010Y-103487831D01*
X168540897Y-104078592D01*
X168828882Y-104617373D01*
X169029607Y-104750000D01*
X131960393Y-104750000D01*
X132161118Y-104617373D01*
X132451649Y-104072443D01*
X132630287Y-103481304D01*
X132690168Y-102866672D01*
X132628990Y-102252169D01*
X132449103Y-101661408D01*
X132161118Y-101122627D01*
X131743148Y-100846457D01*
X129719605Y-102870000D01*
X129733748Y-102884143D01*
X129554143Y-103063748D01*
X129540000Y-103049605D01*
X129525858Y-103063748D01*
X129346253Y-102884143D01*
X129360395Y-102870000D01*
X129346253Y-102855858D01*
X129525858Y-102676253D01*
X129540000Y-102690395D01*
X131563543Y-100666852D01*
X131287373Y-100248882D01*
X130742443Y-99958351D01*
X130151304Y-99779713D01*
X129536672Y-99719832D01*
X128922169Y-99781010D01*
X128331408Y-99960897D01*
X127792627Y-100248882D01*
X127660000Y-100449607D01*
X127660000Y-97688061D01*
X138665000Y-97688061D01*
X138665000Y-97891939D01*
X138704774Y-98091898D01*
X138782795Y-98280256D01*
X138896063Y-98449774D01*
X139040226Y-98593937D01*
X139209744Y-98707205D01*
X139398102Y-98785226D01*
X139598061Y-98825000D01*
X139801939Y-98825000D01*
X140001898Y-98785226D01*
X140190256Y-98707205D01*
X140359774Y-98593937D01*
X140403711Y-98550000D01*
X143195199Y-98550000D01*
X146285000Y-101639802D01*
X146285000Y-101701939D01*
X146324774Y-101901898D01*
X146402795Y-102090256D01*
X146516063Y-102259774D01*
X146660226Y-102403937D01*
X146829744Y-102517205D01*
X147018102Y-102595226D01*
X147218061Y-102635000D01*
X147421939Y-102635000D01*
X147621898Y-102595226D01*
X147810256Y-102517205D01*
X147979774Y-102403937D01*
X148123937Y-102259774D01*
X148237205Y-102090256D01*
X148315226Y-101901898D01*
X148355000Y-101701939D01*
X148355000Y-101498061D01*
X148315226Y-101298102D01*
X148237205Y-101109744D01*
X148123937Y-100940226D01*
X147979774Y-100796063D01*
X147810256Y-100682795D01*
X147621898Y-100604774D01*
X147421939Y-100565000D01*
X147359802Y-100565000D01*
X144073804Y-97279003D01*
X144050001Y-97249999D01*
X143934276Y-97155026D01*
X143802247Y-97084454D01*
X143658986Y-97040997D01*
X143547333Y-97030000D01*
X143547322Y-97030000D01*
X143510000Y-97026324D01*
X143472678Y-97030000D01*
X140403711Y-97030000D01*
X140359774Y-96986063D01*
X140190256Y-96872795D01*
X140001898Y-96794774D01*
X139801939Y-96755000D01*
X139598061Y-96755000D01*
X139398102Y-96794774D01*
X139209744Y-96872795D01*
X139040226Y-96986063D01*
X138896063Y-97130226D01*
X138782795Y-97299744D01*
X138704774Y-97488102D01*
X138665000Y-97688061D01*
X127660000Y-97688061D01*
X127660000Y-96418061D01*
X151365000Y-96418061D01*
X151365000Y-96621939D01*
X151404774Y-96821898D01*
X151482795Y-97010256D01*
X151596063Y-97179774D01*
X151740226Y-97323937D01*
X151909744Y-97437205D01*
X152098102Y-97515226D01*
X152298061Y-97555000D01*
X152501939Y-97555000D01*
X152701898Y-97515226D01*
X152890256Y-97437205D01*
X153059774Y-97323937D01*
X153103711Y-97280000D01*
X154180001Y-97280000D01*
X154180000Y-100896289D01*
X154136063Y-100940226D01*
X154022795Y-101109744D01*
X153944774Y-101298102D01*
X153905000Y-101498061D01*
X153905000Y-101701939D01*
X153944774Y-101901898D01*
X154022795Y-102090256D01*
X154136063Y-102259774D01*
X154280226Y-102403937D01*
X154449744Y-102517205D01*
X154638102Y-102595226D01*
X154838061Y-102635000D01*
X155041939Y-102635000D01*
X155241898Y-102595226D01*
X155430256Y-102517205D01*
X155599774Y-102403937D01*
X155743937Y-102259774D01*
X155857205Y-102090256D01*
X155935226Y-101901898D01*
X155975000Y-101701939D01*
X155975000Y-101498061D01*
X155968506Y-101465413D01*
X162874192Y-101465413D01*
X162969956Y-101729814D01*
X163259571Y-101870704D01*
X163571108Y-101952384D01*
X163892595Y-101971718D01*
X164211675Y-101927961D01*
X164516088Y-101822795D01*
X164690044Y-101729814D01*
X164785808Y-101465413D01*
X163830000Y-100509605D01*
X162874192Y-101465413D01*
X155968506Y-101465413D01*
X155935226Y-101298102D01*
X155857205Y-101109744D01*
X155743937Y-100940226D01*
X155700000Y-100896289D01*
X155700000Y-100392595D01*
X162188282Y-100392595D01*
X162232039Y-100711675D01*
X162337205Y-101016088D01*
X162430186Y-101190044D01*
X162694587Y-101285808D01*
X163650395Y-100330000D01*
X164009605Y-100330000D01*
X164965413Y-101285808D01*
X165229814Y-101190044D01*
X165370704Y-100900429D01*
X165452384Y-100588892D01*
X165471718Y-100267405D01*
X165427961Y-99948325D01*
X165322795Y-99643912D01*
X165229814Y-99469956D01*
X165083301Y-99416890D01*
X166198524Y-99416890D01*
X166243175Y-99564099D01*
X166368359Y-99826920D01*
X166542412Y-100060269D01*
X166758645Y-100255178D01*
X167008748Y-100404157D01*
X167283109Y-100501481D01*
X167513000Y-100380814D01*
X167513000Y-99187000D01*
X167767000Y-99187000D01*
X167767000Y-100380814D01*
X167996891Y-100501481D01*
X168271252Y-100404157D01*
X168521355Y-100255178D01*
X168737588Y-100060269D01*
X168911641Y-99826920D01*
X169036825Y-99564099D01*
X169081476Y-99416890D01*
X168960155Y-99187000D01*
X167767000Y-99187000D01*
X167513000Y-99187000D01*
X166319845Y-99187000D01*
X166198524Y-99416890D01*
X165083301Y-99416890D01*
X164965413Y-99374192D01*
X164009605Y-100330000D01*
X163650395Y-100330000D01*
X162694587Y-99374192D01*
X162430186Y-99469956D01*
X162289296Y-99759571D01*
X162207616Y-100071108D01*
X162188282Y-100392595D01*
X155700000Y-100392595D01*
X155700000Y-99194587D01*
X162874192Y-99194587D01*
X163830000Y-100150395D01*
X164785808Y-99194587D01*
X164690044Y-98930186D01*
X164400429Y-98789296D01*
X164088892Y-98707616D01*
X163767405Y-98688282D01*
X163448325Y-98732039D01*
X163143912Y-98837205D01*
X162969956Y-98930186D01*
X162874192Y-99194587D01*
X155700000Y-99194587D01*
X155700000Y-97280000D01*
X156172667Y-97280000D01*
X156210000Y-97283677D01*
X156247333Y-97280000D01*
X156358986Y-97269003D01*
X156502247Y-97225546D01*
X156634276Y-97154974D01*
X156750001Y-97060001D01*
X156844974Y-96944276D01*
X156915546Y-96812247D01*
X156959003Y-96668986D01*
X156973677Y-96520000D01*
X156970000Y-96482667D01*
X156970000Y-95088967D01*
X162195000Y-95088967D01*
X162195000Y-95411033D01*
X162257832Y-95726912D01*
X162381082Y-96024463D01*
X162560013Y-96292252D01*
X162787748Y-96519987D01*
X163055537Y-96698918D01*
X163353088Y-96822168D01*
X163668967Y-96885000D01*
X163991033Y-96885000D01*
X164306912Y-96822168D01*
X164604463Y-96698918D01*
X164872252Y-96519987D01*
X165099987Y-96292252D01*
X165278918Y-96024463D01*
X165402168Y-95726912D01*
X165465000Y-95411033D01*
X165465000Y-95088967D01*
X165402168Y-94773088D01*
X165278918Y-94475537D01*
X165099987Y-94207748D01*
X164872252Y-93980013D01*
X164872233Y-93980000D01*
X166147815Y-93980000D01*
X166176487Y-94271111D01*
X166261401Y-94551034D01*
X166399294Y-94809014D01*
X166584866Y-95035134D01*
X166810986Y-95220706D01*
X166865791Y-95250000D01*
X166810986Y-95279294D01*
X166584866Y-95464866D01*
X166399294Y-95690986D01*
X166261401Y-95948966D01*
X166176487Y-96228889D01*
X166147815Y-96520000D01*
X166176487Y-96811111D01*
X166261401Y-97091034D01*
X166399294Y-97349014D01*
X166584866Y-97575134D01*
X166810986Y-97760706D01*
X166875523Y-97795201D01*
X166758645Y-97864822D01*
X166542412Y-98059731D01*
X166368359Y-98293080D01*
X166243175Y-98555901D01*
X166198524Y-98703110D01*
X166319845Y-98933000D01*
X167513000Y-98933000D01*
X167513000Y-98913000D01*
X167767000Y-98913000D01*
X167767000Y-98933000D01*
X168960155Y-98933000D01*
X169081476Y-98703110D01*
X169036825Y-98555901D01*
X168911641Y-98293080D01*
X168737588Y-98059731D01*
X168521355Y-97864822D01*
X168404477Y-97795201D01*
X168469014Y-97760706D01*
X168695134Y-97575134D01*
X168880706Y-97349014D01*
X169018599Y-97091034D01*
X169103513Y-96811111D01*
X169132185Y-96520000D01*
X169103513Y-96228889D01*
X169018599Y-95948966D01*
X168880706Y-95690986D01*
X168695134Y-95464866D01*
X168469014Y-95279294D01*
X168414209Y-95250000D01*
X168469014Y-95220706D01*
X168695134Y-95035134D01*
X168880706Y-94809014D01*
X169018599Y-94551034D01*
X169103513Y-94271111D01*
X169132185Y-93980000D01*
X169103513Y-93688889D01*
X169018599Y-93408966D01*
X168880706Y-93150986D01*
X168695134Y-92924866D01*
X168665313Y-92900393D01*
X168734180Y-92879502D01*
X168844494Y-92820537D01*
X168941185Y-92741185D01*
X169020537Y-92644494D01*
X169079502Y-92534180D01*
X169115812Y-92414482D01*
X169128072Y-92290000D01*
X169128072Y-90590000D01*
X169115812Y-90465518D01*
X169079502Y-90345820D01*
X169020537Y-90235506D01*
X168941185Y-90138815D01*
X168844494Y-90059463D01*
X168734180Y-90000498D01*
X168614482Y-89964188D01*
X168490000Y-89951928D01*
X166790000Y-89951928D01*
X166665518Y-89964188D01*
X166545820Y-90000498D01*
X166435506Y-90059463D01*
X166338815Y-90138815D01*
X166259463Y-90235506D01*
X166200498Y-90345820D01*
X166164188Y-90465518D01*
X166151928Y-90590000D01*
X166151928Y-92290000D01*
X166164188Y-92414482D01*
X166200498Y-92534180D01*
X166259463Y-92644494D01*
X166338815Y-92741185D01*
X166435506Y-92820537D01*
X166545820Y-92879502D01*
X166614687Y-92900393D01*
X166584866Y-92924866D01*
X166399294Y-93150986D01*
X166261401Y-93408966D01*
X166176487Y-93688889D01*
X166147815Y-93980000D01*
X164872233Y-93980000D01*
X164604463Y-93801082D01*
X164306912Y-93677832D01*
X163991033Y-93615000D01*
X163668967Y-93615000D01*
X163353088Y-93677832D01*
X163055537Y-93801082D01*
X162787748Y-93980013D01*
X162560013Y-94207748D01*
X162381082Y-94475537D01*
X162257832Y-94773088D01*
X162195000Y-95088967D01*
X156970000Y-95088967D01*
X156970000Y-91754801D01*
X157519802Y-91205000D01*
X157581939Y-91205000D01*
X157781898Y-91165226D01*
X157970256Y-91087205D01*
X158139774Y-90973937D01*
X158283937Y-90829774D01*
X158397205Y-90660256D01*
X158475226Y-90471898D01*
X158515000Y-90271939D01*
X158515000Y-90068061D01*
X158475226Y-89868102D01*
X158397205Y-89679744D01*
X158283937Y-89510226D01*
X158139774Y-89366063D01*
X157970256Y-89252795D01*
X157781898Y-89174774D01*
X157581939Y-89135000D01*
X157378061Y-89135000D01*
X157178102Y-89174774D01*
X156989744Y-89252795D01*
X156820226Y-89366063D01*
X156676063Y-89510226D01*
X156562795Y-89679744D01*
X156484774Y-89868102D01*
X156445000Y-90068061D01*
X156445000Y-90130198D01*
X155698998Y-90876201D01*
X155670000Y-90899999D01*
X155646202Y-90928997D01*
X155646201Y-90928998D01*
X155575026Y-91015724D01*
X155504454Y-91147754D01*
X155460998Y-91291015D01*
X155446324Y-91440000D01*
X155450001Y-91477332D01*
X155450000Y-95760000D01*
X154977333Y-95760000D01*
X154940000Y-95756323D01*
X154902667Y-95760000D01*
X153103711Y-95760000D01*
X153059774Y-95716063D01*
X152890256Y-95602795D01*
X152701898Y-95524774D01*
X152501939Y-95485000D01*
X152298061Y-95485000D01*
X152098102Y-95524774D01*
X151909744Y-95602795D01*
X151740226Y-95716063D01*
X151596063Y-95860226D01*
X151482795Y-96029744D01*
X151404774Y-96218102D01*
X151365000Y-96418061D01*
X127660000Y-96418061D01*
X127660000Y-95030000D01*
X130391928Y-95030000D01*
X130404188Y-95154482D01*
X130440498Y-95274180D01*
X130499463Y-95384494D01*
X130578815Y-95481185D01*
X130675506Y-95560537D01*
X130785820Y-95619502D01*
X130905518Y-95655812D01*
X131030000Y-95668072D01*
X131794250Y-95665000D01*
X131953000Y-95506250D01*
X131953000Y-94107000D01*
X132207000Y-94107000D01*
X132207000Y-95506250D01*
X132365750Y-95665000D01*
X133130000Y-95668072D01*
X133254482Y-95655812D01*
X133374180Y-95619502D01*
X133484494Y-95560537D01*
X133581185Y-95481185D01*
X133660537Y-95384494D01*
X133719502Y-95274180D01*
X133755812Y-95154482D01*
X133768072Y-95030000D01*
X133765000Y-94265750D01*
X133606250Y-94107000D01*
X132207000Y-94107000D01*
X131953000Y-94107000D01*
X130553750Y-94107000D01*
X130395000Y-94265750D01*
X130391928Y-95030000D01*
X127660000Y-95030000D01*
X127660000Y-92930000D01*
X130391928Y-92930000D01*
X130395000Y-93694250D01*
X130553750Y-93853000D01*
X131953000Y-93853000D01*
X131953000Y-93833000D01*
X132207000Y-93833000D01*
X132207000Y-93853000D01*
X133606250Y-93853000D01*
X133765000Y-93694250D01*
X133768072Y-92930000D01*
X133755812Y-92805518D01*
X133719502Y-92685820D01*
X133677939Y-92608061D01*
X139935000Y-92608061D01*
X139935000Y-92811939D01*
X139974774Y-93011898D01*
X140052795Y-93200256D01*
X140166063Y-93369774D01*
X140310226Y-93513937D01*
X140479744Y-93627205D01*
X140668102Y-93705226D01*
X140868061Y-93745000D01*
X141071939Y-93745000D01*
X141271898Y-93705226D01*
X141460256Y-93627205D01*
X141629774Y-93513937D01*
X141673711Y-93470000D01*
X152966289Y-93470000D01*
X153010226Y-93513937D01*
X153179744Y-93627205D01*
X153368102Y-93705226D01*
X153568061Y-93745000D01*
X153771939Y-93745000D01*
X153971898Y-93705226D01*
X154160256Y-93627205D01*
X154329774Y-93513937D01*
X154473937Y-93369774D01*
X154587205Y-93200256D01*
X154665226Y-93011898D01*
X154705000Y-92811939D01*
X154705000Y-92608061D01*
X154665226Y-92408102D01*
X154587205Y-92219744D01*
X154473937Y-92050226D01*
X154329774Y-91906063D01*
X154160256Y-91792795D01*
X153971898Y-91714774D01*
X153771939Y-91675000D01*
X153568061Y-91675000D01*
X153368102Y-91714774D01*
X153179744Y-91792795D01*
X153010226Y-91906063D01*
X152966289Y-91950000D01*
X141673711Y-91950000D01*
X141629774Y-91906063D01*
X141460256Y-91792795D01*
X141271898Y-91714774D01*
X141071939Y-91675000D01*
X140868061Y-91675000D01*
X140668102Y-91714774D01*
X140479744Y-91792795D01*
X140310226Y-91906063D01*
X140166063Y-92050226D01*
X140052795Y-92219744D01*
X139974774Y-92408102D01*
X139935000Y-92608061D01*
X133677939Y-92608061D01*
X133660537Y-92575506D01*
X133581185Y-92478815D01*
X133484494Y-92399463D01*
X133470454Y-92391958D01*
X133573228Y-92238147D01*
X133700246Y-91931496D01*
X133765000Y-91605958D01*
X133765000Y-91274042D01*
X133700246Y-90948504D01*
X133573228Y-90641853D01*
X133388825Y-90365875D01*
X133154125Y-90131175D01*
X132878147Y-89946772D01*
X132571496Y-89819754D01*
X132245958Y-89755000D01*
X131914042Y-89755000D01*
X131588504Y-89819754D01*
X131281853Y-89946772D01*
X131005875Y-90131175D01*
X130771175Y-90365875D01*
X130586772Y-90641853D01*
X130459754Y-90948504D01*
X130395000Y-91274042D01*
X130395000Y-91605958D01*
X130459754Y-91931496D01*
X130586772Y-92238147D01*
X130689546Y-92391958D01*
X130675506Y-92399463D01*
X130578815Y-92478815D01*
X130499463Y-92575506D01*
X130440498Y-92685820D01*
X130404188Y-92805518D01*
X130391928Y-92930000D01*
X127660000Y-92930000D01*
X127660000Y-88920707D01*
X127736802Y-89036943D01*
X128281732Y-89327474D01*
X128872871Y-89506112D01*
X129487503Y-89565993D01*
X130102006Y-89504815D01*
X130692767Y-89324928D01*
X131231548Y-89036943D01*
X131507718Y-88618973D01*
X129484175Y-86595430D01*
X129470033Y-86609573D01*
X129290428Y-86429968D01*
X129304570Y-86415825D01*
X129290428Y-86401683D01*
X129470033Y-86222078D01*
X129484175Y-86236220D01*
X129498318Y-86222078D01*
X129677923Y-86401683D01*
X129663780Y-86415825D01*
X131687323Y-88439368D01*
X132105293Y-88163198D01*
X132395824Y-87618268D01*
X132574462Y-87027129D01*
X132634343Y-86412497D01*
X132613085Y-86198967D01*
X134255000Y-86198967D01*
X134255000Y-86521033D01*
X134317832Y-86836912D01*
X134441082Y-87134463D01*
X134620013Y-87402252D01*
X134847748Y-87629987D01*
X135115537Y-87808918D01*
X135413088Y-87932168D01*
X135728967Y-87995000D01*
X136051033Y-87995000D01*
X136366912Y-87932168D01*
X136664463Y-87808918D01*
X136932252Y-87629987D01*
X137159987Y-87402252D01*
X137298093Y-87195561D01*
X142807500Y-87195561D01*
X142807500Y-87399439D01*
X142847274Y-87599398D01*
X142925295Y-87787756D01*
X143038563Y-87957274D01*
X143182726Y-88101437D01*
X143352244Y-88214705D01*
X143540602Y-88292726D01*
X143740561Y-88332500D01*
X143944439Y-88332500D01*
X144144398Y-88292726D01*
X144302455Y-88227256D01*
X145015000Y-88939802D01*
X145015000Y-89001939D01*
X145054774Y-89201898D01*
X145132795Y-89390256D01*
X145246063Y-89559774D01*
X145390226Y-89703937D01*
X145559744Y-89817205D01*
X145748102Y-89895226D01*
X145948061Y-89935000D01*
X146151939Y-89935000D01*
X146351898Y-89895226D01*
X146540256Y-89817205D01*
X146709774Y-89703937D01*
X146853937Y-89559774D01*
X146967205Y-89390256D01*
X147045226Y-89201898D01*
X147085000Y-89001939D01*
X147085000Y-88798061D01*
X147073246Y-88738967D01*
X162195000Y-88738967D01*
X162195000Y-89061033D01*
X162257832Y-89376912D01*
X162381082Y-89674463D01*
X162560013Y-89942252D01*
X162787748Y-90169987D01*
X163055537Y-90348918D01*
X163353088Y-90472168D01*
X163668967Y-90535000D01*
X163991033Y-90535000D01*
X164306912Y-90472168D01*
X164604463Y-90348918D01*
X164872252Y-90169987D01*
X165099987Y-89942252D01*
X165278918Y-89674463D01*
X165402168Y-89376912D01*
X165465000Y-89061033D01*
X165465000Y-88738967D01*
X165402168Y-88423088D01*
X165278918Y-88125537D01*
X165099987Y-87857748D01*
X164872252Y-87630013D01*
X164604463Y-87451082D01*
X164306912Y-87327832D01*
X163991033Y-87265000D01*
X163668967Y-87265000D01*
X163353088Y-87327832D01*
X163055537Y-87451082D01*
X162787748Y-87630013D01*
X162560013Y-87857748D01*
X162381082Y-88125537D01*
X162257832Y-88423088D01*
X162195000Y-88738967D01*
X147073246Y-88738967D01*
X147045226Y-88598102D01*
X146967205Y-88409744D01*
X146853937Y-88240226D01*
X146709774Y-88096063D01*
X146540256Y-87982795D01*
X146351898Y-87904774D01*
X146151939Y-87865000D01*
X146089802Y-87865000D01*
X145011304Y-86786503D01*
X144987501Y-86757499D01*
X144871776Y-86662526D01*
X144739747Y-86591954D01*
X144596486Y-86548497D01*
X144552917Y-86544206D01*
X144502274Y-86493563D01*
X144332756Y-86380295D01*
X144144398Y-86302274D01*
X143944439Y-86262500D01*
X143740561Y-86262500D01*
X143540602Y-86302274D01*
X143352244Y-86380295D01*
X143182726Y-86493563D01*
X143038563Y-86637726D01*
X142925295Y-86807244D01*
X142847274Y-86995602D01*
X142807500Y-87195561D01*
X137298093Y-87195561D01*
X137338918Y-87134463D01*
X137462168Y-86836912D01*
X137525000Y-86521033D01*
X137525000Y-86198967D01*
X137462168Y-85883088D01*
X137338918Y-85585537D01*
X137159987Y-85317748D01*
X136932252Y-85090013D01*
X136664463Y-84911082D01*
X136366912Y-84787832D01*
X136051033Y-84725000D01*
X135728967Y-84725000D01*
X135413088Y-84787832D01*
X135115537Y-84911082D01*
X134847748Y-85090013D01*
X134620013Y-85317748D01*
X134441082Y-85585537D01*
X134317832Y-85883088D01*
X134255000Y-86198967D01*
X132613085Y-86198967D01*
X132573165Y-85797994D01*
X132393278Y-85207233D01*
X132105293Y-84668452D01*
X131820080Y-84480000D01*
X169029607Y-84480000D01*
X168828882Y-84612627D01*
M02*
