G04 #@! TF.GenerationSoftware,KiCad,Pcbnew,(5.1.4)-1*
G04 #@! TF.CreationDate,2020-01-22T19:26:31-05:00*
G04 #@! TF.ProjectId,UniversalLM393,556e6976-6572-4736-916c-4c4d3339332e,rev?*
G04 #@! TF.SameCoordinates,Original*
G04 #@! TF.FileFunction,Legend,Top*
G04 #@! TF.FilePolarity,Positive*
%FSLAX46Y46*%
G04 Gerber Fmt 4.6, Leading zero omitted, Abs format (unit mm)*
G04 Created by KiCad (PCBNEW (5.1.4)-1) date 2020-01-22 19:26:31*
%MOMM*%
%LPD*%
G04 APERTURE LIST*
%ADD10C,0.120000*%
%ADD11C,0.150000*%
G04 APERTURE END LIST*
D10*
X135690000Y-95840000D02*
X135690000Y-95440000D01*
X135050000Y-95840000D02*
X135690000Y-95840000D01*
X128710000Y-89820000D02*
X135450000Y-89820000D01*
X128710000Y-95600000D02*
X135450000Y-95600000D01*
X135450000Y-95600000D02*
X135450000Y-89820000D01*
X128710000Y-95600000D02*
X128710000Y-89820000D01*
X129830000Y-95600000D02*
X129830000Y-89820000D01*
X134930000Y-95600000D02*
X134930000Y-89820000D01*
X159761422Y-102310000D02*
X160278578Y-102310000D01*
X159761422Y-100890000D02*
X160278578Y-100890000D01*
D11*
X139490000Y-90160000D02*
X137740000Y-90160000D01*
X139490000Y-95915000D02*
X144990000Y-95915000D01*
X139490000Y-89505000D02*
X144990000Y-89505000D01*
X139490000Y-95915000D02*
X139490000Y-95165000D01*
X144990000Y-95915000D02*
X144990000Y-95165000D01*
X144990000Y-89505000D02*
X144990000Y-90255000D01*
X139490000Y-89505000D02*
X139490000Y-90160000D01*
X165230000Y-95250000D02*
G75*
G03X165230000Y-95250000I-1400000J0D01*
G01*
X137290000Y-86360000D02*
G75*
G03X137290000Y-86360000I-1400000J0D01*
G01*
X165230000Y-100330000D02*
G75*
G03X165230000Y-100330000I-1400000J0D01*
G01*
X165230000Y-88900000D02*
G75*
G03X165230000Y-88900000I-1400000J0D01*
G01*
D10*
X160060000Y-96740000D02*
X160060000Y-100270000D01*
X160060000Y-90229000D02*
X160060000Y-93760000D01*
X149820000Y-99240000D02*
X149820000Y-100270000D01*
X149820000Y-94241000D02*
X149820000Y-96260000D01*
X149820000Y-90229000D02*
X149820000Y-91259000D01*
X149820000Y-100270000D02*
X160060000Y-100270000D01*
X149820000Y-90229000D02*
X160060000Y-90229000D01*
X152141422Y-88340000D02*
X152658578Y-88340000D01*
X152141422Y-86920000D02*
X152658578Y-86920000D01*
X146123922Y-87070000D02*
X146641078Y-87070000D01*
X146123922Y-85650000D02*
X146641078Y-85650000D01*
X141680000Y-86618578D02*
X141680000Y-86101422D01*
X140260000Y-86618578D02*
X140260000Y-86101422D01*
X166310000Y-90110000D02*
X167640000Y-90110000D01*
X166310000Y-91440000D02*
X166310000Y-90110000D01*
X166310000Y-92710000D02*
X168970000Y-92710000D01*
X168970000Y-92710000D02*
X168970000Y-100390000D01*
X166310000Y-92710000D02*
X166310000Y-100390000D01*
X166310000Y-100390000D02*
X168970000Y-100390000D01*
X157895000Y-85400000D02*
X155210000Y-85400000D01*
X157895000Y-87320000D02*
X157895000Y-85400000D01*
X155210000Y-87320000D02*
X157895000Y-87320000D01*
X157895000Y-101910000D02*
X155210000Y-101910000D01*
X157895000Y-103830000D02*
X157895000Y-101910000D01*
X155210000Y-103830000D02*
X157895000Y-103830000D01*
X142950000Y-100256078D02*
X142950000Y-99738922D01*
X141530000Y-100256078D02*
X141530000Y-99738922D01*
X151808922Y-103580000D02*
X152326078Y-103580000D01*
X151808922Y-102160000D02*
X152326078Y-102160000D01*
D11*
X127162380Y-93043333D02*
X127876666Y-93043333D01*
X128019523Y-93090952D01*
X128114761Y-93186190D01*
X128162380Y-93329047D01*
X128162380Y-93424285D01*
X128162380Y-92043333D02*
X128162380Y-92614761D01*
X128162380Y-92329047D02*
X127162380Y-92329047D01*
X127305238Y-92424285D01*
X127400476Y-92519523D01*
X127448095Y-92614761D01*
X159853333Y-100402380D02*
X159520000Y-99926190D01*
X159281904Y-100402380D02*
X159281904Y-99402380D01*
X159662857Y-99402380D01*
X159758095Y-99450000D01*
X159805714Y-99497619D01*
X159853333Y-99592857D01*
X159853333Y-99735714D01*
X159805714Y-99830952D01*
X159758095Y-99878571D01*
X159662857Y-99926190D01*
X159281904Y-99926190D01*
X160710476Y-99735714D02*
X160710476Y-100402380D01*
X160472380Y-99354761D02*
X160234285Y-100069047D01*
X160853333Y-100069047D01*
X170688095Y-99822380D02*
X170688095Y-98822380D01*
X170688095Y-99298571D02*
X171259523Y-99298571D01*
X171259523Y-99822380D02*
X171259523Y-98822380D01*
X172164285Y-99155714D02*
X172164285Y-99822380D01*
X171926190Y-98774761D02*
X171688095Y-99489047D01*
X172307142Y-99489047D01*
X128778095Y-99822380D02*
X128778095Y-98822380D01*
X128778095Y-99298571D02*
X129349523Y-99298571D01*
X129349523Y-99822380D02*
X129349523Y-98822380D01*
X129730476Y-98822380D02*
X130349523Y-98822380D01*
X130016190Y-99203333D01*
X130159047Y-99203333D01*
X130254285Y-99250952D01*
X130301904Y-99298571D01*
X130349523Y-99393809D01*
X130349523Y-99631904D01*
X130301904Y-99727142D01*
X130254285Y-99774761D01*
X130159047Y-99822380D01*
X129873333Y-99822380D01*
X129778095Y-99774761D01*
X129730476Y-99727142D01*
X170688095Y-83312380D02*
X170688095Y-82312380D01*
X170688095Y-82788571D02*
X171259523Y-82788571D01*
X171259523Y-83312380D02*
X171259523Y-82312380D01*
X171688095Y-82407619D02*
X171735714Y-82360000D01*
X171830952Y-82312380D01*
X172069047Y-82312380D01*
X172164285Y-82360000D01*
X172211904Y-82407619D01*
X172259523Y-82502857D01*
X172259523Y-82598095D01*
X172211904Y-82740952D01*
X171640476Y-83312380D01*
X172259523Y-83312380D01*
X128722270Y-83368205D02*
X128722270Y-82368205D01*
X128722270Y-82844396D02*
X129293698Y-82844396D01*
X129293698Y-83368205D02*
X129293698Y-82368205D01*
X130293698Y-83368205D02*
X129722270Y-83368205D01*
X130007984Y-83368205D02*
X130007984Y-82368205D01*
X129912746Y-82511063D01*
X129817508Y-82606301D01*
X129722270Y-82653920D01*
X141478095Y-88032380D02*
X141478095Y-88841904D01*
X141525714Y-88937142D01*
X141573333Y-88984761D01*
X141668571Y-89032380D01*
X141859047Y-89032380D01*
X141954285Y-88984761D01*
X142001904Y-88937142D01*
X142049523Y-88841904D01*
X142049523Y-88032380D01*
X143049523Y-89032380D02*
X142478095Y-89032380D01*
X142763809Y-89032380D02*
X142763809Y-88032380D01*
X142668571Y-88175238D01*
X142573333Y-88270476D01*
X142478095Y-88318095D01*
X162568095Y-92202380D02*
X163139523Y-92202380D01*
X162853809Y-93202380D02*
X162853809Y-92202380D01*
X163472857Y-93202380D02*
X163472857Y-92202380D01*
X163853809Y-92202380D01*
X163949047Y-92250000D01*
X163996666Y-92297619D01*
X164044285Y-92392857D01*
X164044285Y-92535714D01*
X163996666Y-92630952D01*
X163949047Y-92678571D01*
X163853809Y-92726190D01*
X163472857Y-92726190D01*
X164901428Y-92535714D02*
X164901428Y-93202380D01*
X164663333Y-92154761D02*
X164425238Y-92869047D01*
X165044285Y-92869047D01*
X134628095Y-83312380D02*
X135199523Y-83312380D01*
X134913809Y-84312380D02*
X134913809Y-83312380D01*
X135532857Y-84312380D02*
X135532857Y-83312380D01*
X135913809Y-83312380D01*
X136009047Y-83360000D01*
X136056666Y-83407619D01*
X136104285Y-83502857D01*
X136104285Y-83645714D01*
X136056666Y-83740952D01*
X136009047Y-83788571D01*
X135913809Y-83836190D01*
X135532857Y-83836190D01*
X136437619Y-83312380D02*
X137056666Y-83312380D01*
X136723333Y-83693333D01*
X136866190Y-83693333D01*
X136961428Y-83740952D01*
X137009047Y-83788571D01*
X137056666Y-83883809D01*
X137056666Y-84121904D01*
X137009047Y-84217142D01*
X136961428Y-84264761D01*
X136866190Y-84312380D01*
X136580476Y-84312380D01*
X136485238Y-84264761D01*
X136437619Y-84217142D01*
X162568095Y-97282380D02*
X163139523Y-97282380D01*
X162853809Y-98282380D02*
X162853809Y-97282380D01*
X163472857Y-98282380D02*
X163472857Y-97282380D01*
X163853809Y-97282380D01*
X163949047Y-97330000D01*
X163996666Y-97377619D01*
X164044285Y-97472857D01*
X164044285Y-97615714D01*
X163996666Y-97710952D01*
X163949047Y-97758571D01*
X163853809Y-97806190D01*
X163472857Y-97806190D01*
X164425238Y-97377619D02*
X164472857Y-97330000D01*
X164568095Y-97282380D01*
X164806190Y-97282380D01*
X164901428Y-97330000D01*
X164949047Y-97377619D01*
X164996666Y-97472857D01*
X164996666Y-97568095D01*
X164949047Y-97710952D01*
X164377619Y-98282380D01*
X164996666Y-98282380D01*
X162568095Y-85852380D02*
X163139523Y-85852380D01*
X162853809Y-86852380D02*
X162853809Y-85852380D01*
X163472857Y-86852380D02*
X163472857Y-85852380D01*
X163853809Y-85852380D01*
X163949047Y-85900000D01*
X163996666Y-85947619D01*
X164044285Y-86042857D01*
X164044285Y-86185714D01*
X163996666Y-86280952D01*
X163949047Y-86328571D01*
X163853809Y-86376190D01*
X163472857Y-86376190D01*
X164996666Y-86852380D02*
X164425238Y-86852380D01*
X164710952Y-86852380D02*
X164710952Y-85852380D01*
X164615714Y-85995238D01*
X164520476Y-86090476D01*
X164425238Y-86138095D01*
X154344761Y-89552380D02*
X154011428Y-89076190D01*
X153773333Y-89552380D02*
X153773333Y-88552380D01*
X154154285Y-88552380D01*
X154249523Y-88600000D01*
X154297142Y-88647619D01*
X154344761Y-88742857D01*
X154344761Y-88885714D01*
X154297142Y-88980952D01*
X154249523Y-89028571D01*
X154154285Y-89076190D01*
X153773333Y-89076190D01*
X154630476Y-88552380D02*
X154963809Y-89552380D01*
X155297142Y-88552380D01*
X156154285Y-89552380D02*
X155582857Y-89552380D01*
X155868571Y-89552380D02*
X155868571Y-88552380D01*
X155773333Y-88695238D01*
X155678095Y-88790476D01*
X155582857Y-88838095D01*
X152233333Y-86432380D02*
X151900000Y-85956190D01*
X151661904Y-86432380D02*
X151661904Y-85432380D01*
X152042857Y-85432380D01*
X152138095Y-85480000D01*
X152185714Y-85527619D01*
X152233333Y-85622857D01*
X152233333Y-85765714D01*
X152185714Y-85860952D01*
X152138095Y-85908571D01*
X152042857Y-85956190D01*
X151661904Y-85956190D01*
X152566666Y-85432380D02*
X153185714Y-85432380D01*
X152852380Y-85813333D01*
X152995238Y-85813333D01*
X153090476Y-85860952D01*
X153138095Y-85908571D01*
X153185714Y-86003809D01*
X153185714Y-86241904D01*
X153138095Y-86337142D01*
X153090476Y-86384761D01*
X152995238Y-86432380D01*
X152709523Y-86432380D01*
X152614285Y-86384761D01*
X152566666Y-86337142D01*
X146215833Y-85162380D02*
X145882500Y-84686190D01*
X145644404Y-85162380D02*
X145644404Y-84162380D01*
X146025357Y-84162380D01*
X146120595Y-84210000D01*
X146168214Y-84257619D01*
X146215833Y-84352857D01*
X146215833Y-84495714D01*
X146168214Y-84590952D01*
X146120595Y-84638571D01*
X146025357Y-84686190D01*
X145644404Y-84686190D01*
X146596785Y-84257619D02*
X146644404Y-84210000D01*
X146739642Y-84162380D01*
X146977738Y-84162380D01*
X147072976Y-84210000D01*
X147120595Y-84257619D01*
X147168214Y-84352857D01*
X147168214Y-84448095D01*
X147120595Y-84590952D01*
X146549166Y-85162380D01*
X147168214Y-85162380D01*
X139772380Y-86526666D02*
X139296190Y-86860000D01*
X139772380Y-87098095D02*
X138772380Y-87098095D01*
X138772380Y-86717142D01*
X138820000Y-86621904D01*
X138867619Y-86574285D01*
X138962857Y-86526666D01*
X139105714Y-86526666D01*
X139200952Y-86574285D01*
X139248571Y-86621904D01*
X139296190Y-86717142D01*
X139296190Y-87098095D01*
X139772380Y-85574285D02*
X139772380Y-86145714D01*
X139772380Y-85860000D02*
X138772380Y-85860000D01*
X138915238Y-85955238D01*
X139010476Y-86050476D01*
X139058095Y-86145714D01*
X167306666Y-88562380D02*
X167306666Y-89276666D01*
X167259047Y-89419523D01*
X167163809Y-89514761D01*
X167020952Y-89562380D01*
X166925714Y-89562380D01*
X167735238Y-88657619D02*
X167782857Y-88610000D01*
X167878095Y-88562380D01*
X168116190Y-88562380D01*
X168211428Y-88610000D01*
X168259047Y-88657619D01*
X168306666Y-88752857D01*
X168306666Y-88848095D01*
X168259047Y-88990952D01*
X167687619Y-89562380D01*
X168306666Y-89562380D01*
X155471904Y-88462380D02*
X155471904Y-87462380D01*
X155710000Y-87462380D01*
X155852857Y-87510000D01*
X155948095Y-87605238D01*
X155995714Y-87700476D01*
X156043333Y-87890952D01*
X156043333Y-88033809D01*
X155995714Y-88224285D01*
X155948095Y-88319523D01*
X155852857Y-88414761D01*
X155710000Y-88462380D01*
X155471904Y-88462380D01*
X156424285Y-87557619D02*
X156471904Y-87510000D01*
X156567142Y-87462380D01*
X156805238Y-87462380D01*
X156900476Y-87510000D01*
X156948095Y-87557619D01*
X156995714Y-87652857D01*
X156995714Y-87748095D01*
X156948095Y-87890952D01*
X156376666Y-88462380D01*
X156995714Y-88462380D01*
X155471904Y-104972380D02*
X155471904Y-103972380D01*
X155710000Y-103972380D01*
X155852857Y-104020000D01*
X155948095Y-104115238D01*
X155995714Y-104210476D01*
X156043333Y-104400952D01*
X156043333Y-104543809D01*
X155995714Y-104734285D01*
X155948095Y-104829523D01*
X155852857Y-104924761D01*
X155710000Y-104972380D01*
X155471904Y-104972380D01*
X156995714Y-104972380D02*
X156424285Y-104972380D01*
X156710000Y-104972380D02*
X156710000Y-103972380D01*
X156614761Y-104115238D01*
X156519523Y-104210476D01*
X156424285Y-104258095D01*
X140947142Y-100164166D02*
X140994761Y-100211785D01*
X141042380Y-100354642D01*
X141042380Y-100449880D01*
X140994761Y-100592738D01*
X140899523Y-100687976D01*
X140804285Y-100735595D01*
X140613809Y-100783214D01*
X140470952Y-100783214D01*
X140280476Y-100735595D01*
X140185238Y-100687976D01*
X140090000Y-100592738D01*
X140042380Y-100449880D01*
X140042380Y-100354642D01*
X140090000Y-100211785D01*
X140137619Y-100164166D01*
X140137619Y-99783214D02*
X140090000Y-99735595D01*
X140042380Y-99640357D01*
X140042380Y-99402261D01*
X140090000Y-99307023D01*
X140137619Y-99259404D01*
X140232857Y-99211785D01*
X140328095Y-99211785D01*
X140470952Y-99259404D01*
X141042380Y-99830833D01*
X141042380Y-99211785D01*
X151900833Y-101577142D02*
X151853214Y-101624761D01*
X151710357Y-101672380D01*
X151615119Y-101672380D01*
X151472261Y-101624761D01*
X151377023Y-101529523D01*
X151329404Y-101434285D01*
X151281785Y-101243809D01*
X151281785Y-101100952D01*
X151329404Y-100910476D01*
X151377023Y-100815238D01*
X151472261Y-100720000D01*
X151615119Y-100672380D01*
X151710357Y-100672380D01*
X151853214Y-100720000D01*
X151900833Y-100767619D01*
X152853214Y-101672380D02*
X152281785Y-101672380D01*
X152567500Y-101672380D02*
X152567500Y-100672380D01*
X152472261Y-100815238D01*
X152377023Y-100910476D01*
X152281785Y-100958095D01*
M02*
