G04 #@! TF.GenerationSoftware,KiCad,Pcbnew,(5.1.4)-1*
G04 #@! TF.CreationDate,2020-01-22T19:26:31-05:00*
G04 #@! TF.ProjectId,UniversalLM393,556e6976-6572-4736-916c-4c4d3339332e,rev?*
G04 #@! TF.SameCoordinates,Original*
G04 #@! TF.FileFunction,Copper,L1,Top*
G04 #@! TF.FilePolarity,Positive*
%FSLAX46Y46*%
G04 Gerber Fmt 4.6, Leading zero omitted, Abs format (unit mm)*
G04 Created by KiCad (PCBNEW (5.1.4)-1) date 2020-01-22 19:26:31*
%MOMM*%
%LPD*%
G04 APERTURE LIST*
%ADD10C,2.100000*%
%ADD11R,2.100000X2.100000*%
%ADD12C,0.100000*%
%ADD13C,0.975000*%
%ADD14C,0.800000*%
%ADD15C,5.000000*%
%ADD16R,1.750000X0.550000*%
%ADD17C,2.000000*%
%ADD18R,2.500000X2.500000*%
%ADD19O,1.700000X1.700000*%
%ADD20R,1.700000X1.700000*%
%ADD21C,0.250000*%
G04 APERTURE END LIST*
D10*
X132080000Y-91440000D03*
D11*
X132080000Y-93980000D03*
D12*
G36*
X161225142Y-100901174D02*
G01*
X161248803Y-100904684D01*
X161272007Y-100910496D01*
X161294529Y-100918554D01*
X161316153Y-100928782D01*
X161336670Y-100941079D01*
X161355883Y-100955329D01*
X161373607Y-100971393D01*
X161389671Y-100989117D01*
X161403921Y-101008330D01*
X161416218Y-101028847D01*
X161426446Y-101050471D01*
X161434504Y-101072993D01*
X161440316Y-101096197D01*
X161443826Y-101119858D01*
X161445000Y-101143750D01*
X161445000Y-102056250D01*
X161443826Y-102080142D01*
X161440316Y-102103803D01*
X161434504Y-102127007D01*
X161426446Y-102149529D01*
X161416218Y-102171153D01*
X161403921Y-102191670D01*
X161389671Y-102210883D01*
X161373607Y-102228607D01*
X161355883Y-102244671D01*
X161336670Y-102258921D01*
X161316153Y-102271218D01*
X161294529Y-102281446D01*
X161272007Y-102289504D01*
X161248803Y-102295316D01*
X161225142Y-102298826D01*
X161201250Y-102300000D01*
X160713750Y-102300000D01*
X160689858Y-102298826D01*
X160666197Y-102295316D01*
X160642993Y-102289504D01*
X160620471Y-102281446D01*
X160598847Y-102271218D01*
X160578330Y-102258921D01*
X160559117Y-102244671D01*
X160541393Y-102228607D01*
X160525329Y-102210883D01*
X160511079Y-102191670D01*
X160498782Y-102171153D01*
X160488554Y-102149529D01*
X160480496Y-102127007D01*
X160474684Y-102103803D01*
X160471174Y-102080142D01*
X160470000Y-102056250D01*
X160470000Y-101143750D01*
X160471174Y-101119858D01*
X160474684Y-101096197D01*
X160480496Y-101072993D01*
X160488554Y-101050471D01*
X160498782Y-101028847D01*
X160511079Y-101008330D01*
X160525329Y-100989117D01*
X160541393Y-100971393D01*
X160559117Y-100955329D01*
X160578330Y-100941079D01*
X160598847Y-100928782D01*
X160620471Y-100918554D01*
X160642993Y-100910496D01*
X160666197Y-100904684D01*
X160689858Y-100901174D01*
X160713750Y-100900000D01*
X161201250Y-100900000D01*
X161225142Y-100901174D01*
X161225142Y-100901174D01*
G37*
D13*
X160957500Y-101600000D03*
D12*
G36*
X159350142Y-100901174D02*
G01*
X159373803Y-100904684D01*
X159397007Y-100910496D01*
X159419529Y-100918554D01*
X159441153Y-100928782D01*
X159461670Y-100941079D01*
X159480883Y-100955329D01*
X159498607Y-100971393D01*
X159514671Y-100989117D01*
X159528921Y-101008330D01*
X159541218Y-101028847D01*
X159551446Y-101050471D01*
X159559504Y-101072993D01*
X159565316Y-101096197D01*
X159568826Y-101119858D01*
X159570000Y-101143750D01*
X159570000Y-102056250D01*
X159568826Y-102080142D01*
X159565316Y-102103803D01*
X159559504Y-102127007D01*
X159551446Y-102149529D01*
X159541218Y-102171153D01*
X159528921Y-102191670D01*
X159514671Y-102210883D01*
X159498607Y-102228607D01*
X159480883Y-102244671D01*
X159461670Y-102258921D01*
X159441153Y-102271218D01*
X159419529Y-102281446D01*
X159397007Y-102289504D01*
X159373803Y-102295316D01*
X159350142Y-102298826D01*
X159326250Y-102300000D01*
X158838750Y-102300000D01*
X158814858Y-102298826D01*
X158791197Y-102295316D01*
X158767993Y-102289504D01*
X158745471Y-102281446D01*
X158723847Y-102271218D01*
X158703330Y-102258921D01*
X158684117Y-102244671D01*
X158666393Y-102228607D01*
X158650329Y-102210883D01*
X158636079Y-102191670D01*
X158623782Y-102171153D01*
X158613554Y-102149529D01*
X158605496Y-102127007D01*
X158599684Y-102103803D01*
X158596174Y-102080142D01*
X158595000Y-102056250D01*
X158595000Y-101143750D01*
X158596174Y-101119858D01*
X158599684Y-101096197D01*
X158605496Y-101072993D01*
X158613554Y-101050471D01*
X158623782Y-101028847D01*
X158636079Y-101008330D01*
X158650329Y-100989117D01*
X158666393Y-100971393D01*
X158684117Y-100955329D01*
X158703330Y-100941079D01*
X158723847Y-100928782D01*
X158745471Y-100918554D01*
X158767993Y-100910496D01*
X158791197Y-100904684D01*
X158814858Y-100901174D01*
X158838750Y-100900000D01*
X159326250Y-100900000D01*
X159350142Y-100901174D01*
X159350142Y-100901174D01*
G37*
D13*
X159082500Y-101600000D03*
D14*
X172775825Y-101544175D03*
X171450000Y-100995000D03*
X170124175Y-101544175D03*
X169575000Y-102870000D03*
X170124175Y-104195825D03*
X171450000Y-104745000D03*
X172775825Y-104195825D03*
X173325000Y-102870000D03*
D15*
X171450000Y-102870000D03*
D14*
X130865825Y-101544175D03*
X129540000Y-100995000D03*
X128214175Y-101544175D03*
X127665000Y-102870000D03*
X128214175Y-104195825D03*
X129540000Y-104745000D03*
X130865825Y-104195825D03*
X131415000Y-102870000D03*
D15*
X129540000Y-102870000D03*
D14*
X172775825Y-85034175D03*
X171450000Y-84485000D03*
X170124175Y-85034175D03*
X169575000Y-86360000D03*
X170124175Y-87685825D03*
X171450000Y-88235000D03*
X172775825Y-87685825D03*
X173325000Y-86360000D03*
D15*
X171450000Y-86360000D03*
D14*
X130810000Y-85090000D03*
X129484175Y-84540825D03*
X128158350Y-85090000D03*
X127609175Y-86415825D03*
X128158350Y-87741650D03*
X129484175Y-88290825D03*
X130810000Y-87741650D03*
X131359175Y-86415825D03*
D15*
X129484175Y-86415825D03*
D16*
X145940000Y-90805000D03*
X145940000Y-92075000D03*
X145940000Y-93345000D03*
X145940000Y-94615000D03*
X138540000Y-94615000D03*
X138540000Y-93345000D03*
X138540000Y-92075000D03*
X138540000Y-90805000D03*
D17*
X163830000Y-95250000D03*
X135890000Y-86360000D03*
X163830000Y-100330000D03*
X163830000Y-88900000D03*
D18*
X150315000Y-97750000D03*
X159565000Y-95250000D03*
X150315000Y-92750000D03*
D12*
G36*
X153605142Y-86931174D02*
G01*
X153628803Y-86934684D01*
X153652007Y-86940496D01*
X153674529Y-86948554D01*
X153696153Y-86958782D01*
X153716670Y-86971079D01*
X153735883Y-86985329D01*
X153753607Y-87001393D01*
X153769671Y-87019117D01*
X153783921Y-87038330D01*
X153796218Y-87058847D01*
X153806446Y-87080471D01*
X153814504Y-87102993D01*
X153820316Y-87126197D01*
X153823826Y-87149858D01*
X153825000Y-87173750D01*
X153825000Y-88086250D01*
X153823826Y-88110142D01*
X153820316Y-88133803D01*
X153814504Y-88157007D01*
X153806446Y-88179529D01*
X153796218Y-88201153D01*
X153783921Y-88221670D01*
X153769671Y-88240883D01*
X153753607Y-88258607D01*
X153735883Y-88274671D01*
X153716670Y-88288921D01*
X153696153Y-88301218D01*
X153674529Y-88311446D01*
X153652007Y-88319504D01*
X153628803Y-88325316D01*
X153605142Y-88328826D01*
X153581250Y-88330000D01*
X153093750Y-88330000D01*
X153069858Y-88328826D01*
X153046197Y-88325316D01*
X153022993Y-88319504D01*
X153000471Y-88311446D01*
X152978847Y-88301218D01*
X152958330Y-88288921D01*
X152939117Y-88274671D01*
X152921393Y-88258607D01*
X152905329Y-88240883D01*
X152891079Y-88221670D01*
X152878782Y-88201153D01*
X152868554Y-88179529D01*
X152860496Y-88157007D01*
X152854684Y-88133803D01*
X152851174Y-88110142D01*
X152850000Y-88086250D01*
X152850000Y-87173750D01*
X152851174Y-87149858D01*
X152854684Y-87126197D01*
X152860496Y-87102993D01*
X152868554Y-87080471D01*
X152878782Y-87058847D01*
X152891079Y-87038330D01*
X152905329Y-87019117D01*
X152921393Y-87001393D01*
X152939117Y-86985329D01*
X152958330Y-86971079D01*
X152978847Y-86958782D01*
X153000471Y-86948554D01*
X153022993Y-86940496D01*
X153046197Y-86934684D01*
X153069858Y-86931174D01*
X153093750Y-86930000D01*
X153581250Y-86930000D01*
X153605142Y-86931174D01*
X153605142Y-86931174D01*
G37*
D13*
X153337500Y-87630000D03*
D12*
G36*
X151730142Y-86931174D02*
G01*
X151753803Y-86934684D01*
X151777007Y-86940496D01*
X151799529Y-86948554D01*
X151821153Y-86958782D01*
X151841670Y-86971079D01*
X151860883Y-86985329D01*
X151878607Y-87001393D01*
X151894671Y-87019117D01*
X151908921Y-87038330D01*
X151921218Y-87058847D01*
X151931446Y-87080471D01*
X151939504Y-87102993D01*
X151945316Y-87126197D01*
X151948826Y-87149858D01*
X151950000Y-87173750D01*
X151950000Y-88086250D01*
X151948826Y-88110142D01*
X151945316Y-88133803D01*
X151939504Y-88157007D01*
X151931446Y-88179529D01*
X151921218Y-88201153D01*
X151908921Y-88221670D01*
X151894671Y-88240883D01*
X151878607Y-88258607D01*
X151860883Y-88274671D01*
X151841670Y-88288921D01*
X151821153Y-88301218D01*
X151799529Y-88311446D01*
X151777007Y-88319504D01*
X151753803Y-88325316D01*
X151730142Y-88328826D01*
X151706250Y-88330000D01*
X151218750Y-88330000D01*
X151194858Y-88328826D01*
X151171197Y-88325316D01*
X151147993Y-88319504D01*
X151125471Y-88311446D01*
X151103847Y-88301218D01*
X151083330Y-88288921D01*
X151064117Y-88274671D01*
X151046393Y-88258607D01*
X151030329Y-88240883D01*
X151016079Y-88221670D01*
X151003782Y-88201153D01*
X150993554Y-88179529D01*
X150985496Y-88157007D01*
X150979684Y-88133803D01*
X150976174Y-88110142D01*
X150975000Y-88086250D01*
X150975000Y-87173750D01*
X150976174Y-87149858D01*
X150979684Y-87126197D01*
X150985496Y-87102993D01*
X150993554Y-87080471D01*
X151003782Y-87058847D01*
X151016079Y-87038330D01*
X151030329Y-87019117D01*
X151046393Y-87001393D01*
X151064117Y-86985329D01*
X151083330Y-86971079D01*
X151103847Y-86958782D01*
X151125471Y-86948554D01*
X151147993Y-86940496D01*
X151171197Y-86934684D01*
X151194858Y-86931174D01*
X151218750Y-86930000D01*
X151706250Y-86930000D01*
X151730142Y-86931174D01*
X151730142Y-86931174D01*
G37*
D13*
X151462500Y-87630000D03*
D12*
G36*
X147587642Y-85661174D02*
G01*
X147611303Y-85664684D01*
X147634507Y-85670496D01*
X147657029Y-85678554D01*
X147678653Y-85688782D01*
X147699170Y-85701079D01*
X147718383Y-85715329D01*
X147736107Y-85731393D01*
X147752171Y-85749117D01*
X147766421Y-85768330D01*
X147778718Y-85788847D01*
X147788946Y-85810471D01*
X147797004Y-85832993D01*
X147802816Y-85856197D01*
X147806326Y-85879858D01*
X147807500Y-85903750D01*
X147807500Y-86816250D01*
X147806326Y-86840142D01*
X147802816Y-86863803D01*
X147797004Y-86887007D01*
X147788946Y-86909529D01*
X147778718Y-86931153D01*
X147766421Y-86951670D01*
X147752171Y-86970883D01*
X147736107Y-86988607D01*
X147718383Y-87004671D01*
X147699170Y-87018921D01*
X147678653Y-87031218D01*
X147657029Y-87041446D01*
X147634507Y-87049504D01*
X147611303Y-87055316D01*
X147587642Y-87058826D01*
X147563750Y-87060000D01*
X147076250Y-87060000D01*
X147052358Y-87058826D01*
X147028697Y-87055316D01*
X147005493Y-87049504D01*
X146982971Y-87041446D01*
X146961347Y-87031218D01*
X146940830Y-87018921D01*
X146921617Y-87004671D01*
X146903893Y-86988607D01*
X146887829Y-86970883D01*
X146873579Y-86951670D01*
X146861282Y-86931153D01*
X146851054Y-86909529D01*
X146842996Y-86887007D01*
X146837184Y-86863803D01*
X146833674Y-86840142D01*
X146832500Y-86816250D01*
X146832500Y-85903750D01*
X146833674Y-85879858D01*
X146837184Y-85856197D01*
X146842996Y-85832993D01*
X146851054Y-85810471D01*
X146861282Y-85788847D01*
X146873579Y-85768330D01*
X146887829Y-85749117D01*
X146903893Y-85731393D01*
X146921617Y-85715329D01*
X146940830Y-85701079D01*
X146961347Y-85688782D01*
X146982971Y-85678554D01*
X147005493Y-85670496D01*
X147028697Y-85664684D01*
X147052358Y-85661174D01*
X147076250Y-85660000D01*
X147563750Y-85660000D01*
X147587642Y-85661174D01*
X147587642Y-85661174D01*
G37*
D13*
X147320000Y-86360000D03*
D12*
G36*
X145712642Y-85661174D02*
G01*
X145736303Y-85664684D01*
X145759507Y-85670496D01*
X145782029Y-85678554D01*
X145803653Y-85688782D01*
X145824170Y-85701079D01*
X145843383Y-85715329D01*
X145861107Y-85731393D01*
X145877171Y-85749117D01*
X145891421Y-85768330D01*
X145903718Y-85788847D01*
X145913946Y-85810471D01*
X145922004Y-85832993D01*
X145927816Y-85856197D01*
X145931326Y-85879858D01*
X145932500Y-85903750D01*
X145932500Y-86816250D01*
X145931326Y-86840142D01*
X145927816Y-86863803D01*
X145922004Y-86887007D01*
X145913946Y-86909529D01*
X145903718Y-86931153D01*
X145891421Y-86951670D01*
X145877171Y-86970883D01*
X145861107Y-86988607D01*
X145843383Y-87004671D01*
X145824170Y-87018921D01*
X145803653Y-87031218D01*
X145782029Y-87041446D01*
X145759507Y-87049504D01*
X145736303Y-87055316D01*
X145712642Y-87058826D01*
X145688750Y-87060000D01*
X145201250Y-87060000D01*
X145177358Y-87058826D01*
X145153697Y-87055316D01*
X145130493Y-87049504D01*
X145107971Y-87041446D01*
X145086347Y-87031218D01*
X145065830Y-87018921D01*
X145046617Y-87004671D01*
X145028893Y-86988607D01*
X145012829Y-86970883D01*
X144998579Y-86951670D01*
X144986282Y-86931153D01*
X144976054Y-86909529D01*
X144967996Y-86887007D01*
X144962184Y-86863803D01*
X144958674Y-86840142D01*
X144957500Y-86816250D01*
X144957500Y-85903750D01*
X144958674Y-85879858D01*
X144962184Y-85856197D01*
X144967996Y-85832993D01*
X144976054Y-85810471D01*
X144986282Y-85788847D01*
X144998579Y-85768330D01*
X145012829Y-85749117D01*
X145028893Y-85731393D01*
X145046617Y-85715329D01*
X145065830Y-85701079D01*
X145086347Y-85688782D01*
X145107971Y-85678554D01*
X145130493Y-85670496D01*
X145153697Y-85664684D01*
X145177358Y-85661174D01*
X145201250Y-85660000D01*
X145688750Y-85660000D01*
X145712642Y-85661174D01*
X145712642Y-85661174D01*
G37*
D13*
X145445000Y-86360000D03*
D12*
G36*
X141450142Y-84936174D02*
G01*
X141473803Y-84939684D01*
X141497007Y-84945496D01*
X141519529Y-84953554D01*
X141541153Y-84963782D01*
X141561670Y-84976079D01*
X141580883Y-84990329D01*
X141598607Y-85006393D01*
X141614671Y-85024117D01*
X141628921Y-85043330D01*
X141641218Y-85063847D01*
X141651446Y-85085471D01*
X141659504Y-85107993D01*
X141665316Y-85131197D01*
X141668826Y-85154858D01*
X141670000Y-85178750D01*
X141670000Y-85666250D01*
X141668826Y-85690142D01*
X141665316Y-85713803D01*
X141659504Y-85737007D01*
X141651446Y-85759529D01*
X141641218Y-85781153D01*
X141628921Y-85801670D01*
X141614671Y-85820883D01*
X141598607Y-85838607D01*
X141580883Y-85854671D01*
X141561670Y-85868921D01*
X141541153Y-85881218D01*
X141519529Y-85891446D01*
X141497007Y-85899504D01*
X141473803Y-85905316D01*
X141450142Y-85908826D01*
X141426250Y-85910000D01*
X140513750Y-85910000D01*
X140489858Y-85908826D01*
X140466197Y-85905316D01*
X140442993Y-85899504D01*
X140420471Y-85891446D01*
X140398847Y-85881218D01*
X140378330Y-85868921D01*
X140359117Y-85854671D01*
X140341393Y-85838607D01*
X140325329Y-85820883D01*
X140311079Y-85801670D01*
X140298782Y-85781153D01*
X140288554Y-85759529D01*
X140280496Y-85737007D01*
X140274684Y-85713803D01*
X140271174Y-85690142D01*
X140270000Y-85666250D01*
X140270000Y-85178750D01*
X140271174Y-85154858D01*
X140274684Y-85131197D01*
X140280496Y-85107993D01*
X140288554Y-85085471D01*
X140298782Y-85063847D01*
X140311079Y-85043330D01*
X140325329Y-85024117D01*
X140341393Y-85006393D01*
X140359117Y-84990329D01*
X140378330Y-84976079D01*
X140398847Y-84963782D01*
X140420471Y-84953554D01*
X140442993Y-84945496D01*
X140466197Y-84939684D01*
X140489858Y-84936174D01*
X140513750Y-84935000D01*
X141426250Y-84935000D01*
X141450142Y-84936174D01*
X141450142Y-84936174D01*
G37*
D13*
X140970000Y-85422500D03*
D12*
G36*
X141450142Y-86811174D02*
G01*
X141473803Y-86814684D01*
X141497007Y-86820496D01*
X141519529Y-86828554D01*
X141541153Y-86838782D01*
X141561670Y-86851079D01*
X141580883Y-86865329D01*
X141598607Y-86881393D01*
X141614671Y-86899117D01*
X141628921Y-86918330D01*
X141641218Y-86938847D01*
X141651446Y-86960471D01*
X141659504Y-86982993D01*
X141665316Y-87006197D01*
X141668826Y-87029858D01*
X141670000Y-87053750D01*
X141670000Y-87541250D01*
X141668826Y-87565142D01*
X141665316Y-87588803D01*
X141659504Y-87612007D01*
X141651446Y-87634529D01*
X141641218Y-87656153D01*
X141628921Y-87676670D01*
X141614671Y-87695883D01*
X141598607Y-87713607D01*
X141580883Y-87729671D01*
X141561670Y-87743921D01*
X141541153Y-87756218D01*
X141519529Y-87766446D01*
X141497007Y-87774504D01*
X141473803Y-87780316D01*
X141450142Y-87783826D01*
X141426250Y-87785000D01*
X140513750Y-87785000D01*
X140489858Y-87783826D01*
X140466197Y-87780316D01*
X140442993Y-87774504D01*
X140420471Y-87766446D01*
X140398847Y-87756218D01*
X140378330Y-87743921D01*
X140359117Y-87729671D01*
X140341393Y-87713607D01*
X140325329Y-87695883D01*
X140311079Y-87676670D01*
X140298782Y-87656153D01*
X140288554Y-87634529D01*
X140280496Y-87612007D01*
X140274684Y-87588803D01*
X140271174Y-87565142D01*
X140270000Y-87541250D01*
X140270000Y-87053750D01*
X140271174Y-87029858D01*
X140274684Y-87006197D01*
X140280496Y-86982993D01*
X140288554Y-86960471D01*
X140298782Y-86938847D01*
X140311079Y-86918330D01*
X140325329Y-86899117D01*
X140341393Y-86881393D01*
X140359117Y-86865329D01*
X140378330Y-86851079D01*
X140398847Y-86838782D01*
X140420471Y-86828554D01*
X140442993Y-86820496D01*
X140466197Y-86814684D01*
X140489858Y-86811174D01*
X140513750Y-86810000D01*
X141426250Y-86810000D01*
X141450142Y-86811174D01*
X141450142Y-86811174D01*
G37*
D13*
X140970000Y-87297500D03*
D19*
X167640000Y-99060000D03*
X167640000Y-96520000D03*
X167640000Y-93980000D03*
D20*
X167640000Y-91440000D03*
D12*
G36*
X155540142Y-85661174D02*
G01*
X155563803Y-85664684D01*
X155587007Y-85670496D01*
X155609529Y-85678554D01*
X155631153Y-85688782D01*
X155651670Y-85701079D01*
X155670883Y-85715329D01*
X155688607Y-85731393D01*
X155704671Y-85749117D01*
X155718921Y-85768330D01*
X155731218Y-85788847D01*
X155741446Y-85810471D01*
X155749504Y-85832993D01*
X155755316Y-85856197D01*
X155758826Y-85879858D01*
X155760000Y-85903750D01*
X155760000Y-86816250D01*
X155758826Y-86840142D01*
X155755316Y-86863803D01*
X155749504Y-86887007D01*
X155741446Y-86909529D01*
X155731218Y-86931153D01*
X155718921Y-86951670D01*
X155704671Y-86970883D01*
X155688607Y-86988607D01*
X155670883Y-87004671D01*
X155651670Y-87018921D01*
X155631153Y-87031218D01*
X155609529Y-87041446D01*
X155587007Y-87049504D01*
X155563803Y-87055316D01*
X155540142Y-87058826D01*
X155516250Y-87060000D01*
X155028750Y-87060000D01*
X155004858Y-87058826D01*
X154981197Y-87055316D01*
X154957993Y-87049504D01*
X154935471Y-87041446D01*
X154913847Y-87031218D01*
X154893330Y-87018921D01*
X154874117Y-87004671D01*
X154856393Y-86988607D01*
X154840329Y-86970883D01*
X154826079Y-86951670D01*
X154813782Y-86931153D01*
X154803554Y-86909529D01*
X154795496Y-86887007D01*
X154789684Y-86863803D01*
X154786174Y-86840142D01*
X154785000Y-86816250D01*
X154785000Y-85903750D01*
X154786174Y-85879858D01*
X154789684Y-85856197D01*
X154795496Y-85832993D01*
X154803554Y-85810471D01*
X154813782Y-85788847D01*
X154826079Y-85768330D01*
X154840329Y-85749117D01*
X154856393Y-85731393D01*
X154874117Y-85715329D01*
X154893330Y-85701079D01*
X154913847Y-85688782D01*
X154935471Y-85678554D01*
X154957993Y-85670496D01*
X154981197Y-85664684D01*
X155004858Y-85661174D01*
X155028750Y-85660000D01*
X155516250Y-85660000D01*
X155540142Y-85661174D01*
X155540142Y-85661174D01*
G37*
D13*
X155272500Y-86360000D03*
D12*
G36*
X157415142Y-85661174D02*
G01*
X157438803Y-85664684D01*
X157462007Y-85670496D01*
X157484529Y-85678554D01*
X157506153Y-85688782D01*
X157526670Y-85701079D01*
X157545883Y-85715329D01*
X157563607Y-85731393D01*
X157579671Y-85749117D01*
X157593921Y-85768330D01*
X157606218Y-85788847D01*
X157616446Y-85810471D01*
X157624504Y-85832993D01*
X157630316Y-85856197D01*
X157633826Y-85879858D01*
X157635000Y-85903750D01*
X157635000Y-86816250D01*
X157633826Y-86840142D01*
X157630316Y-86863803D01*
X157624504Y-86887007D01*
X157616446Y-86909529D01*
X157606218Y-86931153D01*
X157593921Y-86951670D01*
X157579671Y-86970883D01*
X157563607Y-86988607D01*
X157545883Y-87004671D01*
X157526670Y-87018921D01*
X157506153Y-87031218D01*
X157484529Y-87041446D01*
X157462007Y-87049504D01*
X157438803Y-87055316D01*
X157415142Y-87058826D01*
X157391250Y-87060000D01*
X156903750Y-87060000D01*
X156879858Y-87058826D01*
X156856197Y-87055316D01*
X156832993Y-87049504D01*
X156810471Y-87041446D01*
X156788847Y-87031218D01*
X156768330Y-87018921D01*
X156749117Y-87004671D01*
X156731393Y-86988607D01*
X156715329Y-86970883D01*
X156701079Y-86951670D01*
X156688782Y-86931153D01*
X156678554Y-86909529D01*
X156670496Y-86887007D01*
X156664684Y-86863803D01*
X156661174Y-86840142D01*
X156660000Y-86816250D01*
X156660000Y-85903750D01*
X156661174Y-85879858D01*
X156664684Y-85856197D01*
X156670496Y-85832993D01*
X156678554Y-85810471D01*
X156688782Y-85788847D01*
X156701079Y-85768330D01*
X156715329Y-85749117D01*
X156731393Y-85731393D01*
X156749117Y-85715329D01*
X156768330Y-85701079D01*
X156788847Y-85688782D01*
X156810471Y-85678554D01*
X156832993Y-85670496D01*
X156856197Y-85664684D01*
X156879858Y-85661174D01*
X156903750Y-85660000D01*
X157391250Y-85660000D01*
X157415142Y-85661174D01*
X157415142Y-85661174D01*
G37*
D13*
X157147500Y-86360000D03*
D12*
G36*
X155540142Y-102171174D02*
G01*
X155563803Y-102174684D01*
X155587007Y-102180496D01*
X155609529Y-102188554D01*
X155631153Y-102198782D01*
X155651670Y-102211079D01*
X155670883Y-102225329D01*
X155688607Y-102241393D01*
X155704671Y-102259117D01*
X155718921Y-102278330D01*
X155731218Y-102298847D01*
X155741446Y-102320471D01*
X155749504Y-102342993D01*
X155755316Y-102366197D01*
X155758826Y-102389858D01*
X155760000Y-102413750D01*
X155760000Y-103326250D01*
X155758826Y-103350142D01*
X155755316Y-103373803D01*
X155749504Y-103397007D01*
X155741446Y-103419529D01*
X155731218Y-103441153D01*
X155718921Y-103461670D01*
X155704671Y-103480883D01*
X155688607Y-103498607D01*
X155670883Y-103514671D01*
X155651670Y-103528921D01*
X155631153Y-103541218D01*
X155609529Y-103551446D01*
X155587007Y-103559504D01*
X155563803Y-103565316D01*
X155540142Y-103568826D01*
X155516250Y-103570000D01*
X155028750Y-103570000D01*
X155004858Y-103568826D01*
X154981197Y-103565316D01*
X154957993Y-103559504D01*
X154935471Y-103551446D01*
X154913847Y-103541218D01*
X154893330Y-103528921D01*
X154874117Y-103514671D01*
X154856393Y-103498607D01*
X154840329Y-103480883D01*
X154826079Y-103461670D01*
X154813782Y-103441153D01*
X154803554Y-103419529D01*
X154795496Y-103397007D01*
X154789684Y-103373803D01*
X154786174Y-103350142D01*
X154785000Y-103326250D01*
X154785000Y-102413750D01*
X154786174Y-102389858D01*
X154789684Y-102366197D01*
X154795496Y-102342993D01*
X154803554Y-102320471D01*
X154813782Y-102298847D01*
X154826079Y-102278330D01*
X154840329Y-102259117D01*
X154856393Y-102241393D01*
X154874117Y-102225329D01*
X154893330Y-102211079D01*
X154913847Y-102198782D01*
X154935471Y-102188554D01*
X154957993Y-102180496D01*
X154981197Y-102174684D01*
X155004858Y-102171174D01*
X155028750Y-102170000D01*
X155516250Y-102170000D01*
X155540142Y-102171174D01*
X155540142Y-102171174D01*
G37*
D13*
X155272500Y-102870000D03*
D12*
G36*
X157415142Y-102171174D02*
G01*
X157438803Y-102174684D01*
X157462007Y-102180496D01*
X157484529Y-102188554D01*
X157506153Y-102198782D01*
X157526670Y-102211079D01*
X157545883Y-102225329D01*
X157563607Y-102241393D01*
X157579671Y-102259117D01*
X157593921Y-102278330D01*
X157606218Y-102298847D01*
X157616446Y-102320471D01*
X157624504Y-102342993D01*
X157630316Y-102366197D01*
X157633826Y-102389858D01*
X157635000Y-102413750D01*
X157635000Y-103326250D01*
X157633826Y-103350142D01*
X157630316Y-103373803D01*
X157624504Y-103397007D01*
X157616446Y-103419529D01*
X157606218Y-103441153D01*
X157593921Y-103461670D01*
X157579671Y-103480883D01*
X157563607Y-103498607D01*
X157545883Y-103514671D01*
X157526670Y-103528921D01*
X157506153Y-103541218D01*
X157484529Y-103551446D01*
X157462007Y-103559504D01*
X157438803Y-103565316D01*
X157415142Y-103568826D01*
X157391250Y-103570000D01*
X156903750Y-103570000D01*
X156879858Y-103568826D01*
X156856197Y-103565316D01*
X156832993Y-103559504D01*
X156810471Y-103551446D01*
X156788847Y-103541218D01*
X156768330Y-103528921D01*
X156749117Y-103514671D01*
X156731393Y-103498607D01*
X156715329Y-103480883D01*
X156701079Y-103461670D01*
X156688782Y-103441153D01*
X156678554Y-103419529D01*
X156670496Y-103397007D01*
X156664684Y-103373803D01*
X156661174Y-103350142D01*
X156660000Y-103326250D01*
X156660000Y-102413750D01*
X156661174Y-102389858D01*
X156664684Y-102366197D01*
X156670496Y-102342993D01*
X156678554Y-102320471D01*
X156688782Y-102298847D01*
X156701079Y-102278330D01*
X156715329Y-102259117D01*
X156731393Y-102241393D01*
X156749117Y-102225329D01*
X156768330Y-102211079D01*
X156788847Y-102198782D01*
X156810471Y-102188554D01*
X156832993Y-102180496D01*
X156856197Y-102174684D01*
X156879858Y-102171174D01*
X156903750Y-102170000D01*
X157391250Y-102170000D01*
X157415142Y-102171174D01*
X157415142Y-102171174D01*
G37*
D13*
X157147500Y-102870000D03*
D12*
G36*
X142720142Y-98573674D02*
G01*
X142743803Y-98577184D01*
X142767007Y-98582996D01*
X142789529Y-98591054D01*
X142811153Y-98601282D01*
X142831670Y-98613579D01*
X142850883Y-98627829D01*
X142868607Y-98643893D01*
X142884671Y-98661617D01*
X142898921Y-98680830D01*
X142911218Y-98701347D01*
X142921446Y-98722971D01*
X142929504Y-98745493D01*
X142935316Y-98768697D01*
X142938826Y-98792358D01*
X142940000Y-98816250D01*
X142940000Y-99303750D01*
X142938826Y-99327642D01*
X142935316Y-99351303D01*
X142929504Y-99374507D01*
X142921446Y-99397029D01*
X142911218Y-99418653D01*
X142898921Y-99439170D01*
X142884671Y-99458383D01*
X142868607Y-99476107D01*
X142850883Y-99492171D01*
X142831670Y-99506421D01*
X142811153Y-99518718D01*
X142789529Y-99528946D01*
X142767007Y-99537004D01*
X142743803Y-99542816D01*
X142720142Y-99546326D01*
X142696250Y-99547500D01*
X141783750Y-99547500D01*
X141759858Y-99546326D01*
X141736197Y-99542816D01*
X141712993Y-99537004D01*
X141690471Y-99528946D01*
X141668847Y-99518718D01*
X141648330Y-99506421D01*
X141629117Y-99492171D01*
X141611393Y-99476107D01*
X141595329Y-99458383D01*
X141581079Y-99439170D01*
X141568782Y-99418653D01*
X141558554Y-99397029D01*
X141550496Y-99374507D01*
X141544684Y-99351303D01*
X141541174Y-99327642D01*
X141540000Y-99303750D01*
X141540000Y-98816250D01*
X141541174Y-98792358D01*
X141544684Y-98768697D01*
X141550496Y-98745493D01*
X141558554Y-98722971D01*
X141568782Y-98701347D01*
X141581079Y-98680830D01*
X141595329Y-98661617D01*
X141611393Y-98643893D01*
X141629117Y-98627829D01*
X141648330Y-98613579D01*
X141668847Y-98601282D01*
X141690471Y-98591054D01*
X141712993Y-98582996D01*
X141736197Y-98577184D01*
X141759858Y-98573674D01*
X141783750Y-98572500D01*
X142696250Y-98572500D01*
X142720142Y-98573674D01*
X142720142Y-98573674D01*
G37*
D13*
X142240000Y-99060000D03*
D12*
G36*
X142720142Y-100448674D02*
G01*
X142743803Y-100452184D01*
X142767007Y-100457996D01*
X142789529Y-100466054D01*
X142811153Y-100476282D01*
X142831670Y-100488579D01*
X142850883Y-100502829D01*
X142868607Y-100518893D01*
X142884671Y-100536617D01*
X142898921Y-100555830D01*
X142911218Y-100576347D01*
X142921446Y-100597971D01*
X142929504Y-100620493D01*
X142935316Y-100643697D01*
X142938826Y-100667358D01*
X142940000Y-100691250D01*
X142940000Y-101178750D01*
X142938826Y-101202642D01*
X142935316Y-101226303D01*
X142929504Y-101249507D01*
X142921446Y-101272029D01*
X142911218Y-101293653D01*
X142898921Y-101314170D01*
X142884671Y-101333383D01*
X142868607Y-101351107D01*
X142850883Y-101367171D01*
X142831670Y-101381421D01*
X142811153Y-101393718D01*
X142789529Y-101403946D01*
X142767007Y-101412004D01*
X142743803Y-101417816D01*
X142720142Y-101421326D01*
X142696250Y-101422500D01*
X141783750Y-101422500D01*
X141759858Y-101421326D01*
X141736197Y-101417816D01*
X141712993Y-101412004D01*
X141690471Y-101403946D01*
X141668847Y-101393718D01*
X141648330Y-101381421D01*
X141629117Y-101367171D01*
X141611393Y-101351107D01*
X141595329Y-101333383D01*
X141581079Y-101314170D01*
X141568782Y-101293653D01*
X141558554Y-101272029D01*
X141550496Y-101249507D01*
X141544684Y-101226303D01*
X141541174Y-101202642D01*
X141540000Y-101178750D01*
X141540000Y-100691250D01*
X141541174Y-100667358D01*
X141544684Y-100643697D01*
X141550496Y-100620493D01*
X141558554Y-100597971D01*
X141568782Y-100576347D01*
X141581079Y-100555830D01*
X141595329Y-100536617D01*
X141611393Y-100518893D01*
X141629117Y-100502829D01*
X141648330Y-100488579D01*
X141668847Y-100476282D01*
X141690471Y-100466054D01*
X141712993Y-100457996D01*
X141736197Y-100452184D01*
X141759858Y-100448674D01*
X141783750Y-100447500D01*
X142696250Y-100447500D01*
X142720142Y-100448674D01*
X142720142Y-100448674D01*
G37*
D13*
X142240000Y-100935000D03*
D12*
G36*
X153272642Y-102171174D02*
G01*
X153296303Y-102174684D01*
X153319507Y-102180496D01*
X153342029Y-102188554D01*
X153363653Y-102198782D01*
X153384170Y-102211079D01*
X153403383Y-102225329D01*
X153421107Y-102241393D01*
X153437171Y-102259117D01*
X153451421Y-102278330D01*
X153463718Y-102298847D01*
X153473946Y-102320471D01*
X153482004Y-102342993D01*
X153487816Y-102366197D01*
X153491326Y-102389858D01*
X153492500Y-102413750D01*
X153492500Y-103326250D01*
X153491326Y-103350142D01*
X153487816Y-103373803D01*
X153482004Y-103397007D01*
X153473946Y-103419529D01*
X153463718Y-103441153D01*
X153451421Y-103461670D01*
X153437171Y-103480883D01*
X153421107Y-103498607D01*
X153403383Y-103514671D01*
X153384170Y-103528921D01*
X153363653Y-103541218D01*
X153342029Y-103551446D01*
X153319507Y-103559504D01*
X153296303Y-103565316D01*
X153272642Y-103568826D01*
X153248750Y-103570000D01*
X152761250Y-103570000D01*
X152737358Y-103568826D01*
X152713697Y-103565316D01*
X152690493Y-103559504D01*
X152667971Y-103551446D01*
X152646347Y-103541218D01*
X152625830Y-103528921D01*
X152606617Y-103514671D01*
X152588893Y-103498607D01*
X152572829Y-103480883D01*
X152558579Y-103461670D01*
X152546282Y-103441153D01*
X152536054Y-103419529D01*
X152527996Y-103397007D01*
X152522184Y-103373803D01*
X152518674Y-103350142D01*
X152517500Y-103326250D01*
X152517500Y-102413750D01*
X152518674Y-102389858D01*
X152522184Y-102366197D01*
X152527996Y-102342993D01*
X152536054Y-102320471D01*
X152546282Y-102298847D01*
X152558579Y-102278330D01*
X152572829Y-102259117D01*
X152588893Y-102241393D01*
X152606617Y-102225329D01*
X152625830Y-102211079D01*
X152646347Y-102198782D01*
X152667971Y-102188554D01*
X152690493Y-102180496D01*
X152713697Y-102174684D01*
X152737358Y-102171174D01*
X152761250Y-102170000D01*
X153248750Y-102170000D01*
X153272642Y-102171174D01*
X153272642Y-102171174D01*
G37*
D13*
X153005000Y-102870000D03*
D12*
G36*
X151397642Y-102171174D02*
G01*
X151421303Y-102174684D01*
X151444507Y-102180496D01*
X151467029Y-102188554D01*
X151488653Y-102198782D01*
X151509170Y-102211079D01*
X151528383Y-102225329D01*
X151546107Y-102241393D01*
X151562171Y-102259117D01*
X151576421Y-102278330D01*
X151588718Y-102298847D01*
X151598946Y-102320471D01*
X151607004Y-102342993D01*
X151612816Y-102366197D01*
X151616326Y-102389858D01*
X151617500Y-102413750D01*
X151617500Y-103326250D01*
X151616326Y-103350142D01*
X151612816Y-103373803D01*
X151607004Y-103397007D01*
X151598946Y-103419529D01*
X151588718Y-103441153D01*
X151576421Y-103461670D01*
X151562171Y-103480883D01*
X151546107Y-103498607D01*
X151528383Y-103514671D01*
X151509170Y-103528921D01*
X151488653Y-103541218D01*
X151467029Y-103551446D01*
X151444507Y-103559504D01*
X151421303Y-103565316D01*
X151397642Y-103568826D01*
X151373750Y-103570000D01*
X150886250Y-103570000D01*
X150862358Y-103568826D01*
X150838697Y-103565316D01*
X150815493Y-103559504D01*
X150792971Y-103551446D01*
X150771347Y-103541218D01*
X150750830Y-103528921D01*
X150731617Y-103514671D01*
X150713893Y-103498607D01*
X150697829Y-103480883D01*
X150683579Y-103461670D01*
X150671282Y-103441153D01*
X150661054Y-103419529D01*
X150652996Y-103397007D01*
X150647184Y-103373803D01*
X150643674Y-103350142D01*
X150642500Y-103326250D01*
X150642500Y-102413750D01*
X150643674Y-102389858D01*
X150647184Y-102366197D01*
X150652996Y-102342993D01*
X150661054Y-102320471D01*
X150671282Y-102298847D01*
X150683579Y-102278330D01*
X150697829Y-102259117D01*
X150713893Y-102241393D01*
X150731617Y-102225329D01*
X150750830Y-102211079D01*
X150771347Y-102198782D01*
X150792971Y-102188554D01*
X150815493Y-102180496D01*
X150838697Y-102174684D01*
X150862358Y-102171174D01*
X150886250Y-102170000D01*
X151373750Y-102170000D01*
X151397642Y-102171174D01*
X151397642Y-102171174D01*
G37*
D13*
X151130000Y-102870000D03*
D14*
X139700000Y-97790000D03*
X147320000Y-101600000D03*
X139700000Y-97790000D03*
X154940000Y-101600000D03*
X146050000Y-88900000D03*
X152400000Y-96520000D03*
X157480000Y-90170000D03*
X143842500Y-87297500D03*
X153670000Y-92710000D03*
X140970000Y-92710000D03*
D21*
X165100000Y-100330000D02*
X167640000Y-100330000D01*
X141177510Y-100122490D02*
X142240000Y-99060000D01*
X153670000Y-102205000D02*
X153005000Y-102870000D01*
X153670000Y-94605000D02*
X153670000Y-102205000D01*
X150315000Y-92750000D02*
X151815000Y-92750000D01*
X151815000Y-92750000D02*
X153670000Y-94605000D01*
X170180000Y-102870000D02*
X171450000Y-102870000D01*
X167640000Y-100330000D02*
X170180000Y-102870000D01*
X171450000Y-102870000D02*
X172720000Y-101600000D01*
X172720000Y-101600000D02*
X172720000Y-87630000D01*
X172720000Y-87630000D02*
X171450000Y-86360000D01*
X171450000Y-86360000D02*
X160957500Y-86360000D01*
X167640000Y-100330000D02*
X167640000Y-99060000D01*
X145505000Y-99060000D02*
X142240000Y-99060000D01*
X150315000Y-92750000D02*
X150315000Y-94250000D01*
X150315000Y-94250000D02*
X145505000Y-99060000D01*
X167914467Y-102870000D02*
X171450000Y-102870000D01*
X165724477Y-105059990D02*
X167914467Y-102870000D01*
X170124175Y-85034175D02*
X171450000Y-86360000D01*
X163830000Y-100330000D02*
X165100000Y-100330000D01*
X138540000Y-94615000D02*
X138540000Y-97680000D01*
X138540000Y-97680000D02*
X140970000Y-100110000D01*
X141190000Y-100110000D02*
X140970000Y-100110000D01*
X137380000Y-96520000D02*
X138540000Y-97680000D01*
X135890000Y-96520000D02*
X137380000Y-96520000D01*
X132080000Y-93980000D02*
X133350000Y-95250000D01*
X133350000Y-95250000D02*
X134620000Y-95250000D01*
X134620000Y-95250000D02*
X135890000Y-96520000D01*
X133350000Y-95250000D02*
X133350000Y-99060000D01*
X133350000Y-99060000D02*
X129540000Y-102870000D01*
X129484175Y-92684175D02*
X129484175Y-86415825D01*
X132080000Y-93980000D02*
X130780000Y-93980000D01*
X130780000Y-93980000D02*
X129484175Y-92684175D01*
X168854175Y-85034175D02*
X170124175Y-85034175D01*
X167990010Y-84170010D02*
X168854175Y-85034175D01*
X132999990Y-84170010D02*
X167990010Y-84170010D01*
X129484175Y-86415825D02*
X130754175Y-86415825D01*
X130754175Y-86415825D02*
X132999990Y-84170010D01*
X160957500Y-86360000D02*
X157147500Y-86360000D01*
X136525000Y-93345000D02*
X138540000Y-93345000D01*
X135890000Y-92710000D02*
X135890000Y-86360000D01*
X136525000Y-93345000D02*
X135890000Y-92710000D01*
X140032500Y-86360000D02*
X140970000Y-85422500D01*
X135890000Y-86360000D02*
X140032500Y-86360000D01*
X139140000Y-93345000D02*
X139775000Y-93980000D01*
X147320000Y-101600000D02*
X149860000Y-101600000D01*
X149860000Y-101600000D02*
X151130000Y-102870000D01*
X140099999Y-97390001D02*
X140099999Y-94379999D01*
X139700000Y-97790000D02*
X140099999Y-97390001D01*
X139140000Y-93345000D02*
X138540000Y-93345000D01*
X140099999Y-94304999D02*
X139140000Y-93345000D01*
X140099999Y-94379999D02*
X140099999Y-94304999D01*
X166370000Y-97790000D02*
X167640000Y-96520000D01*
X163105000Y-98750020D02*
X164065020Y-97790000D01*
X152400000Y-104140000D02*
X161290000Y-104140000D01*
X151130000Y-102870000D02*
X152400000Y-104140000D01*
X161290000Y-104140000D02*
X161770010Y-103659990D01*
X164065020Y-97790000D02*
X166370000Y-97790000D01*
X161770010Y-103659990D02*
X161770010Y-99540010D01*
X161770010Y-99540010D02*
X162560000Y-98750020D01*
X162560000Y-98750020D02*
X163105000Y-98750020D01*
X134620000Y-91440000D02*
X135890000Y-92710000D01*
X132080000Y-91440000D02*
X134620000Y-91440000D01*
X144507500Y-87297500D02*
X145445000Y-86360000D01*
X140970000Y-87297500D02*
X143842500Y-87297500D01*
X142240000Y-100935000D02*
X145445000Y-100935000D01*
X148630000Y-97750000D02*
X150315000Y-97750000D01*
X145445000Y-100935000D02*
X148630000Y-97750000D01*
X151462500Y-87630000D02*
X152732500Y-88900000D01*
X157480000Y-90170000D02*
X157480000Y-88900000D01*
X152732500Y-88900000D02*
X157480000Y-88900000D01*
X157480000Y-88900000D02*
X165100000Y-88900000D01*
X152400000Y-97085685D02*
X152400000Y-96520000D01*
X152400000Y-97165000D02*
X152400000Y-97085685D01*
X151815000Y-97750000D02*
X152400000Y-97165000D01*
X150315000Y-97750000D02*
X151815000Y-97750000D01*
X165100000Y-88900000D02*
X167640000Y-91440000D01*
X150210010Y-86377510D02*
X151462500Y-87630000D01*
X150210010Y-85090000D02*
X150210010Y-86377510D01*
X145445000Y-86360000D02*
X146715000Y-85090000D01*
X146715000Y-85090000D02*
X150210010Y-85090000D01*
X143842500Y-87297500D02*
X144507500Y-87297500D01*
X145940000Y-89010000D02*
X146050000Y-88900000D01*
X145940000Y-90805000D02*
X145940000Y-89010000D01*
X154940000Y-102537500D02*
X155272500Y-102870000D01*
X154940000Y-101600000D02*
X154940000Y-102537500D01*
X153337500Y-87630000D02*
X153337500Y-86692500D01*
X155272500Y-86360000D02*
X153670000Y-86360000D01*
X153337500Y-86692500D02*
X153670000Y-86360000D01*
X159565000Y-93750000D02*
X159565000Y-95250000D01*
X158525000Y-92710000D02*
X159565000Y-93750000D01*
X156210000Y-92710000D02*
X158525000Y-92710000D01*
X139775000Y-92710000D02*
X140970000Y-92710000D01*
X138540000Y-92075000D02*
X139140000Y-92075000D01*
X139140000Y-92075000D02*
X139775000Y-92710000D01*
X153670000Y-92710000D02*
X156210000Y-92710000D01*
X157812500Y-102870000D02*
X159082500Y-101600000D01*
X157147500Y-102870000D02*
X157812500Y-102870000D01*
X139140000Y-90805000D02*
X139775000Y-90170000D01*
X138540000Y-90805000D02*
X139140000Y-90805000D01*
X143510000Y-90170000D02*
X147320000Y-86360000D01*
X139775000Y-90170000D02*
X143510000Y-90170000D01*
X163830000Y-95250000D02*
X165100000Y-93980000D01*
X165100000Y-93980000D02*
X167640000Y-93980000D01*
X162560000Y-93980000D02*
X163830000Y-95250000D01*
X162560000Y-91440000D02*
X162560000Y-93980000D01*
X147320000Y-86360000D02*
X152400000Y-91440000D01*
X152400000Y-91440000D02*
X162560000Y-91440000D01*
X160957500Y-98122500D02*
X163830000Y-95250000D01*
X160957500Y-101600000D02*
X160957500Y-98122500D01*
M02*
